ISO-10303-21;
HEADER;
FILE_DESCRIPTION(('FreeCAD Model'),'2;1');
FILE_NAME('Open CASCADE Shape Model','2025-07-27T01:11:06',(''),(''),
  'Open CASCADE STEP processor 7.9','FreeCAD','Unknown');
FILE_SCHEMA(('AUTOMOTIVE_DESIGN { 1 0 10303 214 1 1 1 1 }'));
ENDSEC;
DATA;
#1 = APPLICATION_PROTOCOL_DEFINITION('international standard',
  'automotive_design',2000,#2);
#2 = APPLICATION_CONTEXT(
  'core data for automotive mechanical design processes');
#3 = SHAPE_DEFINITION_REPRESENTATION(#4,#10);
#4 = PRODUCT_DEFINITION_SHAPE('','',#5);
#5 = PRODUCT_DEFINITION('design','',#6,#9);
#6 = PRODUCT_DEFINITION_FORMATION('','',#7);
#7 = PRODUCT('Can','Can','',(#8));
#8 = PRODUCT_CONTEXT('',#2,'mechanical');
#9 = PRODUCT_DEFINITION_CONTEXT('part definition',#2,'design');
#10 = ADVANCED_BREP_SHAPE_REPRESENTATION('',(#11,#15),#1215);
#11 = AXIS2_PLACEMENT_3D('',#12,#13,#14);
#12 = CARTESIAN_POINT('',(0.,0.,0.));
#13 = DIRECTION('',(0.,0.,1.));
#14 = DIRECTION('',(1.,0.,-0.));
#15 = MANIFOLD_SOLID_BREP('',#16);
#16 = CLOSED_SHELL('',(#17,#541,#567,#665,#683,#719,#739,#757,#785,#806,
    #832,#841,#866,#891,#900,#920,#946,#971,#997,#1017,#1058,#1155,#1180
    ,#1206));
#17 = ADVANCED_FACE('',(#18,#63),#536,.T.);
#18 = FACE_BOUND('',#19,.F.);
#19 = EDGE_LOOP('',(#20,#30,#37,#38,#47,#56));
#20 = ORIENTED_EDGE('',*,*,#21,.F.);
#21 = EDGE_CURVE('',#22,#24,#26,.T.);
#22 = VERTEX_POINT('',#23);
#23 = CARTESIAN_POINT('',(-8.5,-3.7E-14,164.5));
#24 = VERTEX_POINT('',#25);
#25 = CARTESIAN_POINT('',(-8.5,-4.3E-14,171.));
#26 = LINE('',#27,#28);
#27 = CARTESIAN_POINT('',(-8.5,0.,164.));
#28 = VECTOR('',#29,1.);
#29 = DIRECTION('',(0.,0.,1.));
#30 = ORIENTED_EDGE('',*,*,#31,.F.);
#31 = EDGE_CURVE('',#22,#22,#32,.T.);
#32 = CIRCLE('',#33,8.5);
#33 = AXIS2_PLACEMENT_3D('',#34,#35,#36);
#34 = CARTESIAN_POINT('',(0.,0.,164.5));
#35 = DIRECTION('',(0.,0.,1.));
#36 = DIRECTION('',(-1.,0.,-0.));
#37 = ORIENTED_EDGE('',*,*,#21,.T.);
#38 = ORIENTED_EDGE('',*,*,#39,.T.);
#39 = EDGE_CURVE('',#24,#40,#42,.T.);
#40 = VERTEX_POINT('',#41);
#41 = CARTESIAN_POINT('',(-2.,-8.261355820929,174.));
#42 = ELLIPSE('',#43,9.361652233681,8.5);
#43 = AXIS2_PLACEMENT_3D('',#44,#45,#46);
#44 = CARTESIAN_POINT('',(0.,0.,174.92307692307));
#45 = DIRECTION('',(-0.419058177462,2.E-16,0.9079593845));
#46 = DIRECTION('',(-0.9079593845,4.4E-16,-0.419058177462));
#47 = ORIENTED_EDGE('',*,*,#48,.T.);
#48 = EDGE_CURVE('',#40,#49,#51,.T.);
#49 = VERTEX_POINT('',#50);
#50 = CARTESIAN_POINT('',(-2.,8.261355820929,174.));
#51 = CIRCLE('',#52,8.5);
#52 = AXIS2_PLACEMENT_3D('',#53,#54,#55);
#53 = CARTESIAN_POINT('',(0.,0.,174.));
#54 = DIRECTION('',(0.,-2.2E-16,1.));
#55 = DIRECTION('',(-1.,0.,0.));
#56 = ORIENTED_EDGE('',*,*,#57,.T.);
#57 = EDGE_CURVE('',#49,#24,#58,.T.);
#58 = ELLIPSE('',#59,9.361652233681,8.5);
#59 = AXIS2_PLACEMENT_3D('',#60,#61,#62);
#60 = CARTESIAN_POINT('',(0.,0.,174.92307692307));
#61 = DIRECTION('',(-0.419058177462,2.E-16,0.9079593845));
#62 = DIRECTION('',(-0.9079593845,4.4E-16,-0.419058177462));
#63 = FACE_BOUND('',#64,.F.);
#64 = EDGE_LOOP('',(#65,#224,#381));
#65 = ORIENTED_EDGE('',*,*,#66,.F.);
#66 = EDGE_CURVE('',#67,#69,#71,.T.);
#67 = VERTEX_POINT('',#68);
#68 = CARTESIAN_POINT('',(7.952986860293,-3.,169.));
#69 = VERTEX_POINT('',#70);
#70 = CARTESIAN_POINT('',(8.5,-2.9200197E-07,172.));
#71 = B_SPLINE_CURVE_WITH_KNOTS('',7,(#72,#73,#74,#75,#76,#77,#78,#79,
    #80,#81,#82,#83,#84,#85,#86,#87,#88,#89,#90,#91,#92,#93,#94,#95,#96,
    #97,#98,#99,#100,#101,#102,#103,#104,#105,#106,#107,#108,#109,#110,
    #111,#112,#113,#114,#115,#116,#117,#118,#119,#120,#121,#122,#123,
    #124,#125,#126,#127,#128,#129,#130,#131,#132,#133,#134,#135,#136,
    #137,#138,#139,#140,#141,#142,#143,#144,#145,#146,#147,#148,#149,
    #150,#151,#152,#153,#154,#155,#156,#157,#158,#159,#160,#161,#162,
    #163,#164,#165,#166,#167,#168,#169,#170,#171,#172,#173,#174,#175,
    #176,#177,#178,#179,#180,#181,#182,#183,#184,#185,#186,#187,#188,
    #189,#190,#191,#192,#193,#194,#195,#196,#197,#198,#199,#200,#201,
    #202,#203,#204,#205,#206,#207,#208,#209,#210,#211,#212,#213,#214,
    #215,#216,#217,#218,#219,#220,#221,#222,#223),.UNSPECIFIED.,.T.,.F.,
  (8,6,6,6,6,6,6,6,6,6,6,6,6,6,6,6,6,6,6,6,6,6,6,6,6,8),(0.,
    0.120811119549,0.148422358631,0.181773445823,0.208408003842,
    0.24995401338,0.292180779017,0.317611372404,0.351286500056,
    0.378893176006,0.402391704735,0.422828896961,0.50003457119,
    0.560491993133,0.577598987107,0.597265702229,0.620944463964,
    0.648551256625,0.681896973069,0.708527241949,0.750066561057,
    0.792286526638,0.817713024768,0.85138272949,0.878984959754,1.),
  .UNSPECIFIED.);
#72 = CARTESIAN_POINT('',(7.952986860293,-3.,169.));
#73 = CARTESIAN_POINT('',(7.952986860293,-3.,169.28645351255));
#74 = CARTESIAN_POINT('',(7.96502391112,-2.968089968173,169.5723614481)
  );
#75 = CARTESIAN_POINT('',(7.989016429394,-2.904485167871,169.85536456464
    ));
#76 = CARTESIAN_POINT('',(8.024169186958,-2.808854910961,170.13299591708
    ));
#77 = CARTESIAN_POINT('',(8.068953502948,-2.680447801355,170.40240297573
    ));
#78 = CARTESIAN_POINT('',(8.121001740256,-2.518206912729,170.65998034457
    ));
#79 = CARTESIAN_POINT('',(8.189779935491,-2.275895495156,170.95585307888
    ));
#80 = CARTESIAN_POINT('',(8.202785362339,-2.228972512988,171.01004154927
    ));
#81 = CARTESIAN_POINT('',(8.215963143511,-2.180183298596,171.0633218336)
  );
#82 = CARTESIAN_POINT('',(8.22927186468,-2.129507593421,171.11563283809)
  );
#83 = CARTESIAN_POINT('',(8.242666856529,-2.076925695157,171.16690737297
    ));
#84 = CARTESIAN_POINT('',(8.256100194757,-2.022418457756,171.21707215251
    ));
#85 = CARTESIAN_POINT('',(8.285731071583,-1.89778100812,171.32520453605)
  );
#86 = CARTESIAN_POINT('',(8.301925953574,-1.826744810904,171.38263844722
    ));
#87 = CARTESIAN_POINT('',(8.3180113653,-1.75283958735,171.43819453033));
#88 = CARTESIAN_POINT('',(8.333885627002,-1.676052950534,171.49170606986
    ));
#89 = CARTESIAN_POINT('',(8.349440030776,-1.596379547609,171.54299440706
    ));
#90 = CARTESIAN_POINT('',(8.364559511432,-1.513821368384,171.59186871405
    ));
#91 = CARTESIAN_POINT('',(8.390754138618,-1.360160036057,171.67506717794
    ));
#92 = CARTESIAN_POINT('',(8.402032218004,-1.290088626289,171.71034454471
    ));
#93 = CARTESIAN_POINT('',(8.412888449514,-1.218221510257,171.74382970662
    ));
#94 = CARTESIAN_POINT('',(8.423253408183,-1.144612474341,171.77539761193
    ));
#95 = CARTESIAN_POINT('',(8.433058233288,-1.069321405656,171.80492607897
    ));
#96 = CARTESIAN_POINT('',(8.442235511552,-0.992414292077,171.8322955563)
  );
#97 = CARTESIAN_POINT('',(8.46395496976,-0.791591043524,171.89653079724)
  );
#98 = CARTESIAN_POINT('',(8.47552249828,-0.665295892708,171.93018773373)
  );
#99 = CARTESIAN_POINT('',(8.485122129568,-0.535752993109,171.95775355729
    ));
#100 = CARTESIAN_POINT('',(8.492506113038,-0.40368566816,171.97876739175
    ));
#101 = CARTESIAN_POINT('',(8.497497488445,-0.269851474416,
    171.99290951984));
#102 = CARTESIAN_POINT('',(8.5,-0.13502823878,172.));
#103 = CARTESIAN_POINT('',(8.5,0.137240756858,172.));
#104 = CARTESIAN_POINT('',(8.497414806986,0.274262078597,171.99267525154
    ));
#105 = CARTESIAN_POINT('',(8.492259266995,0.410244517117,171.97806800233
    ));
#106 = CARTESIAN_POINT('',(8.48463596215,0.54437531827,171.95636986918)
  );
#107 = CARTESIAN_POINT('',(8.474733103432,0.675863586667,171.92792041978
    ));
#108 = CARTESIAN_POINT('',(8.462813689844,0.803955319864,171.89320871801
    ));
#109 = CARTESIAN_POINT('',(8.440994794053,1.002621693022,171.82858901244
    ));
#110 = CARTESIAN_POINT('',(8.432170012279,1.075878318639,171.80223944045
    ));
#111 = CARTESIAN_POINT('',(8.422778446216,1.147656227814,171.77393134556
    ));
#112 = CARTESIAN_POINT('',(8.412878817022,1.217898525378,171.74376891617
    ));
#113 = CARTESIAN_POINT('',(8.402531010642,1.286553380909,171.71185849049
    ));
#114 = CARTESIAN_POINT('',(8.391795379014,1.353574027702,171.67830874652
    ));
#115 = CARTESIAN_POINT('',(8.366081997321,1.505448093822,171.5967808851)
  );
#116 = CARTESIAN_POINT('',(8.350855556329,1.589049083757,171.54764586256
    ));
#117 = CARTESIAN_POINT('',(8.335177400422,1.669710607716,171.49603591817
    ));
#118 = CARTESIAN_POINT('',(8.319166381675,1.747429603334,171.44214834539
    ));
#119 = CARTESIAN_POINT('',(8.302934799132,1.822210744783,171.38616787867
    ));
#120 = CARTESIAN_POINT('',(8.286587675835,1.894066117835,171.32826693479
    ));
#121 = CARTESIAN_POINT('',(8.256805578328,2.019538705798,171.21969604373
    ));
#122 = CARTESIAN_POINT('',(8.243374366298,2.07411894697,171.16959468619)
  );
#123 = CARTESIAN_POINT('',(8.229979652677,2.12677412207,171.11838133129)
  );
#124 = CARTESIAN_POINT('',(8.216669430987,2.177523317151,171.06612941551
    ));
#125 = CARTESIAN_POINT('',(8.203488435351,2.226386200691,171.0129062623)
  );
#126 = CARTESIAN_POINT('',(8.190478140495,2.273383023592,170.95877308202
    ));
#127 = CARTESIAN_POINT('',(8.166780355144,2.356967209468,170.85697963821
    ));
#128 = CARTESIAN_POINT('',(8.156035545189,2.39406221715,170.80955569422)
  );
#129 = CARTESIAN_POINT('',(8.145466029779,2.429831919458,170.76154748742
    ));
#130 = CARTESIAN_POINT('',(8.135094212832,2.464287920834,170.71298751179
    ));
#131 = CARTESIAN_POINT('',(8.12494120429,2.497441152921,170.66390640795)
  );
#132 = CARTESIAN_POINT('',(8.115026820117,2.529301874571,170.61433296308
    ));
#133 = CARTESIAN_POINT('',(8.096970468132,2.586473861112,170.52077421021
    ));
#134 = CARTESIAN_POINT('',(8.088765924513,2.612097531539,170.47690254489
    ));
#135 = CARTESIAN_POINT('',(8.080768182715,2.636756902626,170.43269697694
    ));
#136 = CARTESIAN_POINT('',(8.072988837543,2.660457732627,170.38817478179
    ));
#137 = CARTESIAN_POINT('',(8.065438847338,2.683205318536,170.34335264831
    ));
#138 = CARTESIAN_POINT('',(8.05812853398,2.705004496097,170.29824667889)
  );
#139 = CARTESIAN_POINT('',(8.02439339573,2.804644211218,170.08146172915)
  );
#140 = CARTESIAN_POINT('',(8.00126653957,2.869990445674,169.90614901038)
  );
#141 = CARTESIAN_POINT('',(7.982227204603,2.922079355542,169.72784624702
    ));
#142 = CARTESIAN_POINT('',(7.967677822766,2.961054186446,169.54736080516
    ));
#143 = CARTESIAN_POINT('',(7.957885901962,2.987012790574,169.3654281482)
  );
#144 = CARTESIAN_POINT('',(7.952986860293,3.,169.18274458199));
#145 = CARTESIAN_POINT('',(7.952986860293,3.,168.85689826023));
#146 = CARTESIAN_POINT('',(7.955990902257,2.99203627994,168.71381503876)
  );
#147 = CARTESIAN_POINT('',(7.961997592503,2.976112600673,168.57109068088
    ));
#148 = CARTESIAN_POINT('',(7.970955521467,2.952213049136,168.4290677138)
  );
#149 = CARTESIAN_POINT('',(7.98276281356,2.920303758272,168.28809981788)
  );
#150 = CARTESIAN_POINT('',(7.997266677023,2.880334626936,168.14856079777
    ));
#151 = CARTESIAN_POINT('',(8.019072209534,2.818632508742,167.97188799868
    ));
#152 = CARTESIAN_POINT('',(8.024081263682,2.80437279918,167.93306717619)
  );
#153 = CARTESIAN_POINT('',(8.029285599231,2.789460140101,167.89439962175
    ));
#154 = CARTESIAN_POINT('',(8.034680398228,2.773892558458,167.85589402969
    ));
#155 = CARTESIAN_POINT('',(8.04026054177,2.757667879192,167.81755925302)
  );
#156 = CARTESIAN_POINT('',(8.046020609999,2.740783725227,167.77940430344
    ));
#157 = CARTESIAN_POINT('',(8.058777099913,2.703065868968,167.69779155022
    ));
#158 = CARTESIAN_POINT('',(8.06582954241,2.682019219807,167.65439463517)
  );
#159 = CARTESIAN_POINT('',(8.073103531551,2.660093640326,167.6112614807)
  );
#160 = CARTESIAN_POINT('',(8.080589843112,2.637284804771,167.56840646396
    ));
#161 = CARTESIAN_POINT('',(8.088278706689,2.613587991311,167.52584446474
    ));
#162 = CARTESIAN_POINT('',(8.096159805694,2.588998082023,167.48359086547
    ));
#163 = CARTESIAN_POINT('',(8.113929508307,2.532821338289,167.39117857859
    ));
#164 = CARTESIAN_POINT('',(8.123899580308,2.500830594913,167.34116606229
    ));
#165 = CARTESIAN_POINT('',(8.134113609874,2.467527573777,167.29165148201
    ));
#166 = CARTESIAN_POINT('',(8.144551381754,2.43290181669,167.24266421646)
  );
#167 = CARTESIAN_POINT('',(8.155191348932,2.396942166267,167.19423554331
    ));
#168 = CARTESIAN_POINT('',(8.166010632632,2.359636765932,167.1463986392)
  );
#169 = CARTESIAN_POINT('',(8.189779935491,2.275895495156,167.04414692112
    ));
#170 = CARTESIAN_POINT('',(8.202785362339,2.228972512988,166.98995845072
    ));
#171 = CARTESIAN_POINT('',(8.215963143511,2.180183298596,166.93667816639
    ));
#172 = CARTESIAN_POINT('',(8.22927186468,2.129507593421,166.8843671619)
  );
#173 = CARTESIAN_POINT('',(8.242666856529,2.076925695157,166.83309262702
    ));
#174 = CARTESIAN_POINT('',(8.256100194757,2.022418457756,166.78292784748
    ));
#175 = CARTESIAN_POINT('',(8.285731071583,1.89778100812,166.67479546395)
  );
#176 = CARTESIAN_POINT('',(8.301925953574,1.826744810904,166.61736155277
    ));
#177 = CARTESIAN_POINT('',(8.3180113653,1.75283958735,166.56180546966));
#178 = CARTESIAN_POINT('',(8.333885627002,1.676052950534,166.50829393013
    ));
#179 = CARTESIAN_POINT('',(8.349440030776,1.596379547609,166.45700559294
    ));
#180 = CARTESIAN_POINT('',(8.364559511432,1.513821368384,166.40813128594
    ));
#181 = CARTESIAN_POINT('',(8.390754138618,1.360160036057,166.32493282205
    ));
#182 = CARTESIAN_POINT('',(8.402032218005,1.290088626289,166.28965545528
    ));
#183 = CARTESIAN_POINT('',(8.412888449514,1.218221510257,166.25617029337
    ));
#184 = CARTESIAN_POINT('',(8.423253408183,1.144612474341,166.22460238806
    ));
#185 = CARTESIAN_POINT('',(8.433058233289,1.069321405656,166.19507392103
    ));
#186 = CARTESIAN_POINT('',(8.442235511552,0.992414292076,166.16770444369
    ));
#187 = CARTESIAN_POINT('',(8.46395496976,0.791591043523,166.10346920275)
  );
#188 = CARTESIAN_POINT('',(8.47552249828,0.665295892708,166.06981226626)
  );
#189 = CARTESIAN_POINT('',(8.485122129568,0.535752993109,166.0422464427)
  );
#190 = CARTESIAN_POINT('',(8.492506113038,0.40368566816,166.02123260824)
  );
#191 = CARTESIAN_POINT('',(8.497497488445,0.269851474416,166.00709048015
    ));
#192 = CARTESIAN_POINT('',(8.5,0.13502823878,166.));
#193 = CARTESIAN_POINT('',(8.5,-0.137240756858,166.));
#194 = CARTESIAN_POINT('',(8.497414806986,-0.274262078597,
    166.00732474845));
#195 = CARTESIAN_POINT('',(8.492259266995,-0.410244517118,
    166.02193199767));
#196 = CARTESIAN_POINT('',(8.48463596215,-0.54437531827,166.04363013081)
  );
#197 = CARTESIAN_POINT('',(8.474733103432,-0.675863586667,
    166.07207958021));
#198 = CARTESIAN_POINT('',(8.462813689844,-0.803955319864,
    166.10679128198));
#199 = CARTESIAN_POINT('',(8.440994794053,-1.002621693022,
    166.17141098755));
#200 = CARTESIAN_POINT('',(8.432170012279,-1.075878318639,
    166.19776055954));
#201 = CARTESIAN_POINT('',(8.422778446216,-1.147656227814,
    166.22606865443));
#202 = CARTESIAN_POINT('',(8.412878817022,-1.217898525378,
    166.25623108383));
#203 = CARTESIAN_POINT('',(8.402531010642,-1.286553380909,166.2881415095
    ));
#204 = CARTESIAN_POINT('',(8.391795379014,-1.353574027702,
    166.32169125348));
#205 = CARTESIAN_POINT('',(8.366081997321,-1.505448093822,
    166.40321911489));
#206 = CARTESIAN_POINT('',(8.350855556329,-1.589049083757,
    166.45235413743));
#207 = CARTESIAN_POINT('',(8.335177400422,-1.669710607716,
    166.50396408182));
#208 = CARTESIAN_POINT('',(8.319166381675,-1.747429603334,166.5578516546
    ));
#209 = CARTESIAN_POINT('',(8.302934799132,-1.822210744783,
    166.61383212132));
#210 = CARTESIAN_POINT('',(8.286587675835,-1.894066117835,166.6717330652
    ));
#211 = CARTESIAN_POINT('',(8.256805578328,-2.019538705799,
    166.78030395627));
#212 = CARTESIAN_POINT('',(8.243374366298,-2.07411894697,166.8304053138)
  );
#213 = CARTESIAN_POINT('',(8.229979652677,-2.12677412207,166.8816186687)
  );
#214 = CARTESIAN_POINT('',(8.216669430987,-2.177523317151,
    166.93387058448));
#215 = CARTESIAN_POINT('',(8.203488435351,-2.226386200692,166.9870937377
    ));
#216 = CARTESIAN_POINT('',(8.190478140495,-2.273383023592,
    167.04122691797));
#217 = CARTESIAN_POINT('',(8.121552334514,-2.516490440315,
    167.33729657402));
#218 = CARTESIAN_POINT('',(8.069347923748,-2.679316796967,
    167.59522564193));
#219 = CARTESIAN_POINT('',(8.024416908325,-2.808180867014,167.8650493996
    ));
#220 = CARTESIAN_POINT('',(7.989143508177,-2.904148276583,168.1431398525
    ));
#221 = CARTESIAN_POINT('',(7.965066588841,-2.967976831125,
    168.42662922089));
#222 = CARTESIAN_POINT('',(7.952986860293,-3.,168.71303909931));
#223 = CARTESIAN_POINT('',(7.952986860293,-3.,169.));
#224 = ORIENTED_EDGE('',*,*,#225,.F.);
#225 = EDGE_CURVE('',#226,#67,#228,.T.);
#226 = VERTEX_POINT('',#227);
#227 = CARTESIAN_POINT('',(8.5,2.92001896E-07,166.));
#228 = B_SPLINE_CURVE_WITH_KNOTS('',7,(#229,#230,#231,#232,#233,#234,
    #235,#236,#237,#238,#239,#240,#241,#242,#243,#244,#245,#246,#247,
    #248,#249,#250,#251,#252,#253,#254,#255,#256,#257,#258,#259,#260,
    #261,#262,#263,#264,#265,#266,#267,#268,#269,#270,#271,#272,#273,
    #274,#275,#276,#277,#278,#279,#280,#281,#282,#283,#284,#285,#286,
    #287,#288,#289,#290,#291,#292,#293,#294,#295,#296,#297,#298,#299,
    #300,#301,#302,#303,#304,#305,#306,#307,#308,#309,#310,#311,#312,
    #313,#314,#315,#316,#317,#318,#319,#320,#321,#322,#323,#324,#325,
    #326,#327,#328,#329,#330,#331,#332,#333,#334,#335,#336,#337,#338,
    #339,#340,#341,#342,#343,#344,#345,#346,#347,#348,#349,#350,#351,
    #352,#353,#354,#355,#356,#357,#358,#359,#360,#361,#362,#363,#364,
    #365,#366,#367,#368,#369,#370,#371,#372,#373,#374,#375,#376,#377,
    #378,#379,#380),.UNSPECIFIED.,.T.,.F.,(8,6,6,6,6,6,6,6,6,6,6,6,6,6,6
    ,6,6,6,6,6,6,6,6,6,6,8),(0.,0.120811119549,0.148422358631,
    0.181773445823,0.208408003842,0.24995401338,0.292180779017,
    0.317611372404,0.351286500056,0.378893176006,0.402391704735,
    0.422828896961,0.50003457119,0.560491993133,0.577598987107,
    0.597265702229,0.620944463964,0.648551256625,0.681896973069,
    0.708527241949,0.750066561057,0.792286526638,0.817713024768,
    0.85138272949,0.878984959754,1.),.UNSPECIFIED.);
#229 = CARTESIAN_POINT('',(7.952986860293,-3.,169.));
#230 = CARTESIAN_POINT('',(7.952986860293,-3.,169.28645351255));
#231 = CARTESIAN_POINT('',(7.96502391112,-2.968089968173,169.5723614481)
  );
#232 = CARTESIAN_POINT('',(7.989016429394,-2.904485167871,
    169.85536456464));
#233 = CARTESIAN_POINT('',(8.024169186958,-2.808854910961,
    170.13299591708));
#234 = CARTESIAN_POINT('',(8.068953502948,-2.680447801355,
    170.40240297573));
#235 = CARTESIAN_POINT('',(8.121001740256,-2.518206912729,
    170.65998034457));
#236 = CARTESIAN_POINT('',(8.189779935491,-2.275895495156,
    170.95585307888));
#237 = CARTESIAN_POINT('',(8.202785362339,-2.228972512988,
    171.01004154927));
#238 = CARTESIAN_POINT('',(8.215963143511,-2.180183298596,171.0633218336
    ));
#239 = CARTESIAN_POINT('',(8.22927186468,-2.129507593421,171.11563283809
    ));
#240 = CARTESIAN_POINT('',(8.242666856529,-2.076925695157,
    171.16690737297));
#241 = CARTESIAN_POINT('',(8.256100194757,-2.022418457756,
    171.21707215251));
#242 = CARTESIAN_POINT('',(8.285731071583,-1.89778100812,171.32520453605
    ));
#243 = CARTESIAN_POINT('',(8.301925953574,-1.826744810904,
    171.38263844722));
#244 = CARTESIAN_POINT('',(8.3180113653,-1.75283958735,171.43819453033)
  );
#245 = CARTESIAN_POINT('',(8.333885627002,-1.676052950534,
    171.49170606986));
#246 = CARTESIAN_POINT('',(8.349440030776,-1.596379547609,
    171.54299440706));
#247 = CARTESIAN_POINT('',(8.364559511432,-1.513821368384,
    171.59186871405));
#248 = CARTESIAN_POINT('',(8.390754138618,-1.360160036057,
    171.67506717794));
#249 = CARTESIAN_POINT('',(8.402032218004,-1.290088626289,
    171.71034454471));
#250 = CARTESIAN_POINT('',(8.412888449514,-1.218221510257,
    171.74382970662));
#251 = CARTESIAN_POINT('',(8.423253408183,-1.144612474341,
    171.77539761193));
#252 = CARTESIAN_POINT('',(8.433058233288,-1.069321405656,
    171.80492607897));
#253 = CARTESIAN_POINT('',(8.442235511552,-0.992414292077,171.8322955563
    ));
#254 = CARTESIAN_POINT('',(8.46395496976,-0.791591043524,171.89653079724
    ));
#255 = CARTESIAN_POINT('',(8.47552249828,-0.665295892708,171.93018773373
    ));
#256 = CARTESIAN_POINT('',(8.485122129568,-0.535752993109,
    171.95775355729));
#257 = CARTESIAN_POINT('',(8.492506113038,-0.40368566816,171.97876739175
    ));
#258 = CARTESIAN_POINT('',(8.497497488445,-0.269851474416,
    171.99290951984));
#259 = CARTESIAN_POINT('',(8.5,-0.13502823878,172.));
#260 = CARTESIAN_POINT('',(8.5,0.137240756858,172.));
#261 = CARTESIAN_POINT('',(8.497414806986,0.274262078597,171.99267525154
    ));
#262 = CARTESIAN_POINT('',(8.492259266995,0.410244517117,171.97806800233
    ));
#263 = CARTESIAN_POINT('',(8.48463596215,0.54437531827,171.95636986918)
  );
#264 = CARTESIAN_POINT('',(8.474733103432,0.675863586667,171.92792041978
    ));
#265 = CARTESIAN_POINT('',(8.462813689844,0.803955319864,171.89320871801
    ));
#266 = CARTESIAN_POINT('',(8.440994794053,1.002621693022,171.82858901244
    ));
#267 = CARTESIAN_POINT('',(8.432170012279,1.075878318639,171.80223944045
    ));
#268 = CARTESIAN_POINT('',(8.422778446216,1.147656227814,171.77393134556
    ));
#269 = CARTESIAN_POINT('',(8.412878817022,1.217898525378,171.74376891617
    ));
#270 = CARTESIAN_POINT('',(8.402531010642,1.286553380909,171.71185849049
    ));
#271 = CARTESIAN_POINT('',(8.391795379014,1.353574027702,171.67830874652
    ));
#272 = CARTESIAN_POINT('',(8.366081997321,1.505448093822,171.5967808851)
  );
#273 = CARTESIAN_POINT('',(8.350855556329,1.589049083757,171.54764586256
    ));
#274 = CARTESIAN_POINT('',(8.335177400422,1.669710607716,171.49603591817
    ));
#275 = CARTESIAN_POINT('',(8.319166381675,1.747429603334,171.44214834539
    ));
#276 = CARTESIAN_POINT('',(8.302934799132,1.822210744783,171.38616787867
    ));
#277 = CARTESIAN_POINT('',(8.286587675835,1.894066117835,171.32826693479
    ));
#278 = CARTESIAN_POINT('',(8.256805578328,2.019538705798,171.21969604373
    ));
#279 = CARTESIAN_POINT('',(8.243374366298,2.07411894697,171.16959468619)
  );
#280 = CARTESIAN_POINT('',(8.229979652677,2.12677412207,171.11838133129)
  );
#281 = CARTESIAN_POINT('',(8.216669430987,2.177523317151,171.06612941551
    ));
#282 = CARTESIAN_POINT('',(8.203488435351,2.226386200691,171.0129062623)
  );
#283 = CARTESIAN_POINT('',(8.190478140495,2.273383023592,170.95877308202
    ));
#284 = CARTESIAN_POINT('',(8.166780355144,2.356967209468,170.85697963821
    ));
#285 = CARTESIAN_POINT('',(8.156035545189,2.39406221715,170.80955569422)
  );
#286 = CARTESIAN_POINT('',(8.145466029779,2.429831919458,170.76154748742
    ));
#287 = CARTESIAN_POINT('',(8.135094212832,2.464287920834,170.71298751179
    ));
#288 = CARTESIAN_POINT('',(8.12494120429,2.497441152921,170.66390640795)
  );
#289 = CARTESIAN_POINT('',(8.115026820117,2.529301874571,170.61433296308
    ));
#290 = CARTESIAN_POINT('',(8.096970468132,2.586473861112,170.52077421021
    ));
#291 = CARTESIAN_POINT('',(8.088765924513,2.612097531539,170.47690254489
    ));
#292 = CARTESIAN_POINT('',(8.080768182715,2.636756902626,170.43269697694
    ));
#293 = CARTESIAN_POINT('',(8.072988837543,2.660457732627,170.38817478179
    ));
#294 = CARTESIAN_POINT('',(8.065438847338,2.683205318536,170.34335264831
    ));
#295 = CARTESIAN_POINT('',(8.05812853398,2.705004496097,170.29824667889)
  );
#296 = CARTESIAN_POINT('',(8.02439339573,2.804644211218,170.08146172915)
  );
#297 = CARTESIAN_POINT('',(8.00126653957,2.869990445674,169.90614901038)
  );
#298 = CARTESIAN_POINT('',(7.982227204603,2.922079355542,169.72784624702
    ));
#299 = CARTESIAN_POINT('',(7.967677822766,2.961054186446,169.54736080516
    ));
#300 = CARTESIAN_POINT('',(7.957885901962,2.987012790574,169.3654281482)
  );
#301 = CARTESIAN_POINT('',(7.952986860293,3.,169.18274458199));
#302 = CARTESIAN_POINT('',(7.952986860293,3.,168.85689826023));
#303 = CARTESIAN_POINT('',(7.955990902257,2.99203627994,168.71381503876)
  );
#304 = CARTESIAN_POINT('',(7.961997592503,2.976112600673,168.57109068088
    ));
#305 = CARTESIAN_POINT('',(7.970955521467,2.952213049136,168.4290677138)
  );
#306 = CARTESIAN_POINT('',(7.98276281356,2.920303758272,168.28809981788)
  );
#307 = CARTESIAN_POINT('',(7.997266677023,2.880334626936,168.14856079777
    ));
#308 = CARTESIAN_POINT('',(8.019072209534,2.818632508742,167.97188799868
    ));
#309 = CARTESIAN_POINT('',(8.024081263682,2.80437279918,167.93306717619)
  );
#310 = CARTESIAN_POINT('',(8.029285599231,2.789460140101,167.89439962175
    ));
#311 = CARTESIAN_POINT('',(8.034680398228,2.773892558458,167.85589402969
    ));
#312 = CARTESIAN_POINT('',(8.04026054177,2.757667879192,167.81755925302)
  );
#313 = CARTESIAN_POINT('',(8.046020609999,2.740783725227,167.77940430344
    ));
#314 = CARTESIAN_POINT('',(8.058777099913,2.703065868968,167.69779155022
    ));
#315 = CARTESIAN_POINT('',(8.06582954241,2.682019219807,167.65439463517)
  );
#316 = CARTESIAN_POINT('',(8.073103531551,2.660093640326,167.6112614807)
  );
#317 = CARTESIAN_POINT('',(8.080589843112,2.637284804771,167.56840646396
    ));
#318 = CARTESIAN_POINT('',(8.088278706689,2.613587991311,167.52584446474
    ));
#319 = CARTESIAN_POINT('',(8.096159805694,2.588998082023,167.48359086547
    ));
#320 = CARTESIAN_POINT('',(8.113929508307,2.532821338289,167.39117857859
    ));
#321 = CARTESIAN_POINT('',(8.123899580308,2.500830594913,167.34116606229
    ));
#322 = CARTESIAN_POINT('',(8.134113609874,2.467527573777,167.29165148201
    ));
#323 = CARTESIAN_POINT('',(8.144551381754,2.43290181669,167.24266421646)
  );
#324 = CARTESIAN_POINT('',(8.155191348932,2.396942166267,167.19423554331
    ));
#325 = CARTESIAN_POINT('',(8.166010632632,2.359636765932,167.1463986392)
  );
#326 = CARTESIAN_POINT('',(8.189779935491,2.275895495156,167.04414692112
    ));
#327 = CARTESIAN_POINT('',(8.202785362339,2.228972512988,166.98995845072
    ));
#328 = CARTESIAN_POINT('',(8.215963143511,2.180183298596,166.93667816639
    ));
#329 = CARTESIAN_POINT('',(8.22927186468,2.129507593421,166.8843671619)
  );
#330 = CARTESIAN_POINT('',(8.242666856529,2.076925695157,166.83309262702
    ));
#331 = CARTESIAN_POINT('',(8.256100194757,2.022418457756,166.78292784748
    ));
#332 = CARTESIAN_POINT('',(8.285731071583,1.89778100812,166.67479546395)
  );
#333 = CARTESIAN_POINT('',(8.301925953574,1.826744810904,166.61736155277
    ));
#334 = CARTESIAN_POINT('',(8.3180113653,1.75283958735,166.56180546966));
#335 = CARTESIAN_POINT('',(8.333885627002,1.676052950534,166.50829393013
    ));
#336 = CARTESIAN_POINT('',(8.349440030776,1.596379547609,166.45700559294
    ));
#337 = CARTESIAN_POINT('',(8.364559511432,1.513821368384,166.40813128594
    ));
#338 = CARTESIAN_POINT('',(8.390754138618,1.360160036057,166.32493282205
    ));
#339 = CARTESIAN_POINT('',(8.402032218005,1.290088626289,166.28965545528
    ));
#340 = CARTESIAN_POINT('',(8.412888449514,1.218221510257,166.25617029337
    ));
#341 = CARTESIAN_POINT('',(8.423253408183,1.144612474341,166.22460238806
    ));
#342 = CARTESIAN_POINT('',(8.433058233289,1.069321405656,166.19507392103
    ));
#343 = CARTESIAN_POINT('',(8.442235511552,0.992414292076,166.16770444369
    ));
#344 = CARTESIAN_POINT('',(8.46395496976,0.791591043523,166.10346920275)
  );
#345 = CARTESIAN_POINT('',(8.47552249828,0.665295892708,166.06981226626)
  );
#346 = CARTESIAN_POINT('',(8.485122129568,0.535752993109,166.0422464427)
  );
#347 = CARTESIAN_POINT('',(8.492506113038,0.40368566816,166.02123260824)
  );
#348 = CARTESIAN_POINT('',(8.497497488445,0.269851474416,166.00709048015
    ));
#349 = CARTESIAN_POINT('',(8.5,0.13502823878,166.));
#350 = CARTESIAN_POINT('',(8.5,-0.137240756858,166.));
#351 = CARTESIAN_POINT('',(8.497414806986,-0.274262078597,
    166.00732474845));
#352 = CARTESIAN_POINT('',(8.492259266995,-0.410244517118,
    166.02193199767));
#353 = CARTESIAN_POINT('',(8.48463596215,-0.54437531827,166.04363013081)
  );
#354 = CARTESIAN_POINT('',(8.474733103432,-0.675863586667,
    166.07207958021));
#355 = CARTESIAN_POINT('',(8.462813689844,-0.803955319864,
    166.10679128198));
#356 = CARTESIAN_POINT('',(8.440994794053,-1.002621693022,
    166.17141098755));
#357 = CARTESIAN_POINT('',(8.432170012279,-1.075878318639,
    166.19776055954));
#358 = CARTESIAN_POINT('',(8.422778446216,-1.147656227814,
    166.22606865443));
#359 = CARTESIAN_POINT('',(8.412878817022,-1.217898525378,
    166.25623108383));
#360 = CARTESIAN_POINT('',(8.402531010642,-1.286553380909,166.2881415095
    ));
#361 = CARTESIAN_POINT('',(8.391795379014,-1.353574027702,
    166.32169125348));
#362 = CARTESIAN_POINT('',(8.366081997321,-1.505448093822,
    166.40321911489));
#363 = CARTESIAN_POINT('',(8.350855556329,-1.589049083757,
    166.45235413743));
#364 = CARTESIAN_POINT('',(8.335177400422,-1.669710607716,
    166.50396408182));
#365 = CARTESIAN_POINT('',(8.319166381675,-1.747429603334,166.5578516546
    ));
#366 = CARTESIAN_POINT('',(8.302934799132,-1.822210744783,
    166.61383212132));
#367 = CARTESIAN_POINT('',(8.286587675835,-1.894066117835,166.6717330652
    ));
#368 = CARTESIAN_POINT('',(8.256805578328,-2.019538705799,
    166.78030395627));
#369 = CARTESIAN_POINT('',(8.243374366298,-2.07411894697,166.8304053138)
  );
#370 = CARTESIAN_POINT('',(8.229979652677,-2.12677412207,166.8816186687)
  );
#371 = CARTESIAN_POINT('',(8.216669430987,-2.177523317151,
    166.93387058448));
#372 = CARTESIAN_POINT('',(8.203488435351,-2.226386200692,166.9870937377
    ));
#373 = CARTESIAN_POINT('',(8.190478140495,-2.273383023592,
    167.04122691797));
#374 = CARTESIAN_POINT('',(8.121552334514,-2.516490440315,
    167.33729657402));
#375 = CARTESIAN_POINT('',(8.069347923748,-2.679316796967,
    167.59522564193));
#376 = CARTESIAN_POINT('',(8.024416908325,-2.808180867014,167.8650493996
    ));
#377 = CARTESIAN_POINT('',(7.989143508177,-2.904148276583,168.1431398525
    ));
#378 = CARTESIAN_POINT('',(7.965066588841,-2.967976831125,
    168.42662922089));
#379 = CARTESIAN_POINT('',(7.952986860293,-3.,168.71303909931));
#380 = CARTESIAN_POINT('',(7.952986860293,-3.,169.));
#381 = ORIENTED_EDGE('',*,*,#382,.F.);
#382 = EDGE_CURVE('',#69,#226,#383,.T.);
#383 = B_SPLINE_CURVE_WITH_KNOTS('',7,(#384,#385,#386,#387,#388,#389,
    #390,#391,#392,#393,#394,#395,#396,#397,#398,#399,#400,#401,#402,
    #403,#404,#405,#406,#407,#408,#409,#410,#411,#412,#413,#414,#415,
    #416,#417,#418,#419,#420,#421,#422,#423,#424,#425,#426,#427,#428,
    #429,#430,#431,#432,#433,#434,#435,#436,#437,#438,#439,#440,#441,
    #442,#443,#444,#445,#446,#447,#448,#449,#450,#451,#452,#453,#454,
    #455,#456,#457,#458,#459,#460,#461,#462,#463,#464,#465,#466,#467,
    #468,#469,#470,#471,#472,#473,#474,#475,#476,#477,#478,#479,#480,
    #481,#482,#483,#484,#485,#486,#487,#488,#489,#490,#491,#492,#493,
    #494,#495,#496,#497,#498,#499,#500,#501,#502,#503,#504,#505,#506,
    #507,#508,#509,#510,#511,#512,#513,#514,#515,#516,#517,#518,#519,
    #520,#521,#522,#523,#524,#525,#526,#527,#528,#529,#530,#531,#532,
    #533,#534,#535),.UNSPECIFIED.,.T.,.F.,(8,6,6,6,6,6,6,6,6,6,6,6,6,6,6
    ,6,6,6,6,6,6,6,6,6,6,8),(0.,0.120811119549,0.148422358631,
    0.181773445823,0.208408003842,0.24995401338,0.292180779017,
    0.317611372404,0.351286500056,0.378893176006,0.402391704735,
    0.422828896961,0.50003457119,0.560491993133,0.577598987107,
    0.597265702229,0.620944463964,0.648551256625,0.681896973069,
    0.708527241949,0.750066561057,0.792286526638,0.817713024768,
    0.85138272949,0.878984959754,1.),.UNSPECIFIED.);
#384 = CARTESIAN_POINT('',(7.952986860293,-3.,169.));
#385 = CARTESIAN_POINT('',(7.952986860293,-3.,169.28645351255));
#386 = CARTESIAN_POINT('',(7.96502391112,-2.968089968173,169.5723614481)
  );
#387 = CARTESIAN_POINT('',(7.989016429394,-2.904485167871,
    169.85536456464));
#388 = CARTESIAN_POINT('',(8.024169186958,-2.808854910961,
    170.13299591708));
#389 = CARTESIAN_POINT('',(8.068953502948,-2.680447801355,
    170.40240297573));
#390 = CARTESIAN_POINT('',(8.121001740256,-2.518206912729,
    170.65998034457));
#391 = CARTESIAN_POINT('',(8.189779935491,-2.275895495156,
    170.95585307888));
#392 = CARTESIAN_POINT('',(8.202785362339,-2.228972512988,
    171.01004154927));
#393 = CARTESIAN_POINT('',(8.215963143511,-2.180183298596,171.0633218336
    ));
#394 = CARTESIAN_POINT('',(8.22927186468,-2.129507593421,171.11563283809
    ));
#395 = CARTESIAN_POINT('',(8.242666856529,-2.076925695157,
    171.16690737297));
#396 = CARTESIAN_POINT('',(8.256100194757,-2.022418457756,
    171.21707215251));
#397 = CARTESIAN_POINT('',(8.285731071583,-1.89778100812,171.32520453605
    ));
#398 = CARTESIAN_POINT('',(8.301925953574,-1.826744810904,
    171.38263844722));
#399 = CARTESIAN_POINT('',(8.3180113653,-1.75283958735,171.43819453033)
  );
#400 = CARTESIAN_POINT('',(8.333885627002,-1.676052950534,
    171.49170606986));
#401 = CARTESIAN_POINT('',(8.349440030776,-1.596379547609,
    171.54299440706));
#402 = CARTESIAN_POINT('',(8.364559511432,-1.513821368384,
    171.59186871405));
#403 = CARTESIAN_POINT('',(8.390754138618,-1.360160036057,
    171.67506717794));
#404 = CARTESIAN_POINT('',(8.402032218004,-1.290088626289,
    171.71034454471));
#405 = CARTESIAN_POINT('',(8.412888449514,-1.218221510257,
    171.74382970662));
#406 = CARTESIAN_POINT('',(8.423253408183,-1.144612474341,
    171.77539761193));
#407 = CARTESIAN_POINT('',(8.433058233288,-1.069321405656,
    171.80492607897));
#408 = CARTESIAN_POINT('',(8.442235511552,-0.992414292077,171.8322955563
    ));
#409 = CARTESIAN_POINT('',(8.46395496976,-0.791591043524,171.89653079724
    ));
#410 = CARTESIAN_POINT('',(8.47552249828,-0.665295892708,171.93018773373
    ));
#411 = CARTESIAN_POINT('',(8.485122129568,-0.535752993109,
    171.95775355729));
#412 = CARTESIAN_POINT('',(8.492506113038,-0.40368566816,171.97876739175
    ));
#413 = CARTESIAN_POINT('',(8.497497488445,-0.269851474416,
    171.99290951984));
#414 = CARTESIAN_POINT('',(8.5,-0.13502823878,172.));
#415 = CARTESIAN_POINT('',(8.5,0.137240756858,172.));
#416 = CARTESIAN_POINT('',(8.497414806986,0.274262078597,171.99267525154
    ));
#417 = CARTESIAN_POINT('',(8.492259266995,0.410244517117,171.97806800233
    ));
#418 = CARTESIAN_POINT('',(8.48463596215,0.54437531827,171.95636986918)
  );
#419 = CARTESIAN_POINT('',(8.474733103432,0.675863586667,171.92792041978
    ));
#420 = CARTESIAN_POINT('',(8.462813689844,0.803955319864,171.89320871801
    ));
#421 = CARTESIAN_POINT('',(8.440994794053,1.002621693022,171.82858901244
    ));
#422 = CARTESIAN_POINT('',(8.432170012279,1.075878318639,171.80223944045
    ));
#423 = CARTESIAN_POINT('',(8.422778446216,1.147656227814,171.77393134556
    ));
#424 = CARTESIAN_POINT('',(8.412878817022,1.217898525378,171.74376891617
    ));
#425 = CARTESIAN_POINT('',(8.402531010642,1.286553380909,171.71185849049
    ));
#426 = CARTESIAN_POINT('',(8.391795379014,1.353574027702,171.67830874652
    ));
#427 = CARTESIAN_POINT('',(8.366081997321,1.505448093822,171.5967808851)
  );
#428 = CARTESIAN_POINT('',(8.350855556329,1.589049083757,171.54764586256
    ));
#429 = CARTESIAN_POINT('',(8.335177400422,1.669710607716,171.49603591817
    ));
#430 = CARTESIAN_POINT('',(8.319166381675,1.747429603334,171.44214834539
    ));
#431 = CARTESIAN_POINT('',(8.302934799132,1.822210744783,171.38616787867
    ));
#432 = CARTESIAN_POINT('',(8.286587675835,1.894066117835,171.32826693479
    ));
#433 = CARTESIAN_POINT('',(8.256805578328,2.019538705798,171.21969604373
    ));
#434 = CARTESIAN_POINT('',(8.243374366298,2.07411894697,171.16959468619)
  );
#435 = CARTESIAN_POINT('',(8.229979652677,2.12677412207,171.11838133129)
  );
#436 = CARTESIAN_POINT('',(8.216669430987,2.177523317151,171.06612941551
    ));
#437 = CARTESIAN_POINT('',(8.203488435351,2.226386200691,171.0129062623)
  );
#438 = CARTESIAN_POINT('',(8.190478140495,2.273383023592,170.95877308202
    ));
#439 = CARTESIAN_POINT('',(8.166780355144,2.356967209468,170.85697963821
    ));
#440 = CARTESIAN_POINT('',(8.156035545189,2.39406221715,170.80955569422)
  );
#441 = CARTESIAN_POINT('',(8.145466029779,2.429831919458,170.76154748742
    ));
#442 = CARTESIAN_POINT('',(8.135094212832,2.464287920834,170.71298751179
    ));
#443 = CARTESIAN_POINT('',(8.12494120429,2.497441152921,170.66390640795)
  );
#444 = CARTESIAN_POINT('',(8.115026820117,2.529301874571,170.61433296308
    ));
#445 = CARTESIAN_POINT('',(8.096970468132,2.586473861112,170.52077421021
    ));
#446 = CARTESIAN_POINT('',(8.088765924513,2.612097531539,170.47690254489
    ));
#447 = CARTESIAN_POINT('',(8.080768182715,2.636756902626,170.43269697694
    ));
#448 = CARTESIAN_POINT('',(8.072988837543,2.660457732627,170.38817478179
    ));
#449 = CARTESIAN_POINT('',(8.065438847338,2.683205318536,170.34335264831
    ));
#450 = CARTESIAN_POINT('',(8.05812853398,2.705004496097,170.29824667889)
  );
#451 = CARTESIAN_POINT('',(8.02439339573,2.804644211218,170.08146172915)
  );
#452 = CARTESIAN_POINT('',(8.00126653957,2.869990445674,169.90614901038)
  );
#453 = CARTESIAN_POINT('',(7.982227204603,2.922079355542,169.72784624702
    ));
#454 = CARTESIAN_POINT('',(7.967677822766,2.961054186446,169.54736080516
    ));
#455 = CARTESIAN_POINT('',(7.957885901962,2.987012790574,169.3654281482)
  );
#456 = CARTESIAN_POINT('',(7.952986860293,3.,169.18274458199));
#457 = CARTESIAN_POINT('',(7.952986860293,3.,168.85689826023));
#458 = CARTESIAN_POINT('',(7.955990902257,2.99203627994,168.71381503876)
  );
#459 = CARTESIAN_POINT('',(7.961997592503,2.976112600673,168.57109068088
    ));
#460 = CARTESIAN_POINT('',(7.970955521467,2.952213049136,168.4290677138)
  );
#461 = CARTESIAN_POINT('',(7.98276281356,2.920303758272,168.28809981788)
  );
#462 = CARTESIAN_POINT('',(7.997266677023,2.880334626936,168.14856079777
    ));
#463 = CARTESIAN_POINT('',(8.019072209534,2.818632508742,167.97188799868
    ));
#464 = CARTESIAN_POINT('',(8.024081263682,2.80437279918,167.93306717619)
  );
#465 = CARTESIAN_POINT('',(8.029285599231,2.789460140101,167.89439962175
    ));
#466 = CARTESIAN_POINT('',(8.034680398228,2.773892558458,167.85589402969
    ));
#467 = CARTESIAN_POINT('',(8.04026054177,2.757667879192,167.81755925302)
  );
#468 = CARTESIAN_POINT('',(8.046020609999,2.740783725227,167.77940430344
    ));
#469 = CARTESIAN_POINT('',(8.058777099913,2.703065868968,167.69779155022
    ));
#470 = CARTESIAN_POINT('',(8.06582954241,2.682019219807,167.65439463517)
  );
#471 = CARTESIAN_POINT('',(8.073103531551,2.660093640326,167.6112614807)
  );
#472 = CARTESIAN_POINT('',(8.080589843112,2.637284804771,167.56840646396
    ));
#473 = CARTESIAN_POINT('',(8.088278706689,2.613587991311,167.52584446474
    ));
#474 = CARTESIAN_POINT('',(8.096159805694,2.588998082023,167.48359086547
    ));
#475 = CARTESIAN_POINT('',(8.113929508307,2.532821338289,167.39117857859
    ));
#476 = CARTESIAN_POINT('',(8.123899580308,2.500830594913,167.34116606229
    ));
#477 = CARTESIAN_POINT('',(8.134113609874,2.467527573777,167.29165148201
    ));
#478 = CARTESIAN_POINT('',(8.144551381754,2.43290181669,167.24266421646)
  );
#479 = CARTESIAN_POINT('',(8.155191348932,2.396942166267,167.19423554331
    ));
#480 = CARTESIAN_POINT('',(8.166010632632,2.359636765932,167.1463986392)
  );
#481 = CARTESIAN_POINT('',(8.189779935491,2.275895495156,167.04414692112
    ));
#482 = CARTESIAN_POINT('',(8.202785362339,2.228972512988,166.98995845072
    ));
#483 = CARTESIAN_POINT('',(8.215963143511,2.180183298596,166.93667816639
    ));
#484 = CARTESIAN_POINT('',(8.22927186468,2.129507593421,166.8843671619)
  );
#485 = CARTESIAN_POINT('',(8.242666856529,2.076925695157,166.83309262702
    ));
#486 = CARTESIAN_POINT('',(8.256100194757,2.022418457756,166.78292784748
    ));
#487 = CARTESIAN_POINT('',(8.285731071583,1.89778100812,166.67479546395)
  );
#488 = CARTESIAN_POINT('',(8.301925953574,1.826744810904,166.61736155277
    ));
#489 = CARTESIAN_POINT('',(8.3180113653,1.75283958735,166.56180546966));
#490 = CARTESIAN_POINT('',(8.333885627002,1.676052950534,166.50829393013
    ));
#491 = CARTESIAN_POINT('',(8.349440030776,1.596379547609,166.45700559294
    ));
#492 = CARTESIAN_POINT('',(8.364559511432,1.513821368384,166.40813128594
    ));
#493 = CARTESIAN_POINT('',(8.390754138618,1.360160036057,166.32493282205
    ));
#494 = CARTESIAN_POINT('',(8.402032218005,1.290088626289,166.28965545528
    ));
#495 = CARTESIAN_POINT('',(8.412888449514,1.218221510257,166.25617029337
    ));
#496 = CARTESIAN_POINT('',(8.423253408183,1.144612474341,166.22460238806
    ));
#497 = CARTESIAN_POINT('',(8.433058233289,1.069321405656,166.19507392103
    ));
#498 = CARTESIAN_POINT('',(8.442235511552,0.992414292076,166.16770444369
    ));
#499 = CARTESIAN_POINT('',(8.46395496976,0.791591043523,166.10346920275)
  );
#500 = CARTESIAN_POINT('',(8.47552249828,0.665295892708,166.06981226626)
  );
#501 = CARTESIAN_POINT('',(8.485122129568,0.535752993109,166.0422464427)
  );
#502 = CARTESIAN_POINT('',(8.492506113038,0.40368566816,166.02123260824)
  );
#503 = CARTESIAN_POINT('',(8.497497488445,0.269851474416,166.00709048015
    ));
#504 = CARTESIAN_POINT('',(8.5,0.13502823878,166.));
#505 = CARTESIAN_POINT('',(8.5,-0.137240756858,166.));
#506 = CARTESIAN_POINT('',(8.497414806986,-0.274262078597,
    166.00732474845));
#507 = CARTESIAN_POINT('',(8.492259266995,-0.410244517118,
    166.02193199767));
#508 = CARTESIAN_POINT('',(8.48463596215,-0.54437531827,166.04363013081)
  );
#509 = CARTESIAN_POINT('',(8.474733103432,-0.675863586667,
    166.07207958021));
#510 = CARTESIAN_POINT('',(8.462813689844,-0.803955319864,
    166.10679128198));
#511 = CARTESIAN_POINT('',(8.440994794053,-1.002621693022,
    166.17141098755));
#512 = CARTESIAN_POINT('',(8.432170012279,-1.075878318639,
    166.19776055954));
#513 = CARTESIAN_POINT('',(8.422778446216,-1.147656227814,
    166.22606865443));
#514 = CARTESIAN_POINT('',(8.412878817022,-1.217898525378,
    166.25623108383));
#515 = CARTESIAN_POINT('',(8.402531010642,-1.286553380909,166.2881415095
    ));
#516 = CARTESIAN_POINT('',(8.391795379014,-1.353574027702,
    166.32169125348));
#517 = CARTESIAN_POINT('',(8.366081997321,-1.505448093822,
    166.40321911489));
#518 = CARTESIAN_POINT('',(8.350855556329,-1.589049083757,
    166.45235413743));
#519 = CARTESIAN_POINT('',(8.335177400422,-1.669710607716,
    166.50396408182));
#520 = CARTESIAN_POINT('',(8.319166381675,-1.747429603334,166.5578516546
    ));
#521 = CARTESIAN_POINT('',(8.302934799132,-1.822210744783,
    166.61383212132));
#522 = CARTESIAN_POINT('',(8.286587675835,-1.894066117835,166.6717330652
    ));
#523 = CARTESIAN_POINT('',(8.256805578328,-2.019538705799,
    166.78030395627));
#524 = CARTESIAN_POINT('',(8.243374366298,-2.07411894697,166.8304053138)
  );
#525 = CARTESIAN_POINT('',(8.229979652677,-2.12677412207,166.8816186687)
  );
#526 = CARTESIAN_POINT('',(8.216669430987,-2.177523317151,
    166.93387058448));
#527 = CARTESIAN_POINT('',(8.203488435351,-2.226386200692,166.9870937377
    ));
#528 = CARTESIAN_POINT('',(8.190478140495,-2.273383023592,
    167.04122691797));
#529 = CARTESIAN_POINT('',(8.121552334514,-2.516490440315,
    167.33729657402));
#530 = CARTESIAN_POINT('',(8.069347923748,-2.679316796967,
    167.59522564193));
#531 = CARTESIAN_POINT('',(8.024416908325,-2.808180867014,167.8650493996
    ));
#532 = CARTESIAN_POINT('',(7.989143508177,-2.904148276583,168.1431398525
    ));
#533 = CARTESIAN_POINT('',(7.965066588841,-2.967976831125,
    168.42662922089));
#534 = CARTESIAN_POINT('',(7.952986860293,-3.,168.71303909931));
#535 = CARTESIAN_POINT('',(7.952986860293,-3.,169.));
#536 = CYLINDRICAL_SURFACE('',#537,8.5);
#537 = AXIS2_PLACEMENT_3D('',#538,#539,#540);
#538 = CARTESIAN_POINT('',(0.,0.,164.));
#539 = DIRECTION('',(0.,0.,-1.));
#540 = DIRECTION('',(-1.,0.,0.));
#541 = ADVANCED_FACE('',(#542),#562,.F.);
#542 = FACE_BOUND('',#543,.F.);
#543 = EDGE_LOOP('',(#544,#553,#554,#555));
#544 = ORIENTED_EDGE('',*,*,#545,.F.);
#545 = EDGE_CURVE('',#22,#546,#548,.T.);
#546 = VERTEX_POINT('',#547);
#547 = CARTESIAN_POINT('',(-9.,-3.6E-14,164.));
#548 = CIRCLE('',#549,0.5);
#549 = AXIS2_PLACEMENT_3D('',#550,#551,#552);
#550 = CARTESIAN_POINT('',(-9.,0.,164.5));
#551 = DIRECTION('',(0.,1.,-0.));
#552 = DIRECTION('',(-1.,0.,-0.));
#553 = ORIENTED_EDGE('',*,*,#31,.T.);
#554 = ORIENTED_EDGE('',*,*,#545,.T.);
#555 = ORIENTED_EDGE('',*,*,#556,.F.);
#556 = EDGE_CURVE('',#546,#546,#557,.T.);
#557 = CIRCLE('',#558,9.);
#558 = AXIS2_PLACEMENT_3D('',#559,#560,#561);
#559 = CARTESIAN_POINT('',(0.,0.,164.));
#560 = DIRECTION('',(0.,0.,1.));
#561 = DIRECTION('',(-1.,0.,-0.));
#562 = TOROIDAL_SURFACE('',#563,9.,0.5);
#563 = AXIS2_PLACEMENT_3D('',#564,#565,#566);
#564 = CARTESIAN_POINT('',(0.,0.,164.5));
#565 = DIRECTION('',(0.,0.,1.));
#566 = DIRECTION('',(-1.,0.,0.));
#567 = ADVANCED_FACE('',(#568),#660,.T.);
#568 = FACE_BOUND('',#569,.T.);
#569 = EDGE_LOOP('',(#570,#571,#579,#588,#616,#644,#653,#659));
#570 = ORIENTED_EDGE('',*,*,#39,.T.);
#571 = ORIENTED_EDGE('',*,*,#572,.T.);
#572 = EDGE_CURVE('',#40,#573,#575,.T.);
#573 = VERTEX_POINT('',#574);
#574 = CARTESIAN_POINT('',(-2.,-7.745966692415,174.));
#575 = LINE('',#576,#577);
#576 = CARTESIAN_POINT('',(-2.,-189.6940684225,174.));
#577 = VECTOR('',#578,1.);
#578 = DIRECTION('',(0.,1.,-2.2E-16));
#579 = ORIENTED_EDGE('',*,*,#580,.F.);
#580 = EDGE_CURVE('',#581,#573,#583,.T.);
#581 = VERTEX_POINT('',#582);
#582 = CARTESIAN_POINT('',(-3.083333333333,-7.381941178007,173.5));
#583 = ELLIPSE('',#584,8.81096680817,8.);
#584 = AXIS2_PLACEMENT_3D('',#585,#586,#587);
#585 = CARTESIAN_POINT('',(0.,0.,174.92307692307));
#586 = DIRECTION('',(-0.419058177462,2.E-16,0.9079593845));
#587 = DIRECTION('',(0.9079593845,-4.4E-16,0.419058177462));
#588 = ORIENTED_EDGE('',*,*,#589,.T.);
#589 = EDGE_CURVE('',#581,#590,#592,.T.);
#590 = VERTEX_POINT('',#591);
#591 = CARTESIAN_POINT('',(-7.15092571937,-3.8E-14,171.62264966798));
#592 = B_SPLINE_CURVE_WITH_KNOTS('',8,(#593,#594,#595,#596,#597,#598,
    #599,#600,#601,#602,#603,#604,#605,#606,#607,#608,#609,#610,#611,
    #612,#613,#614,#615),.UNSPECIFIED.,.F.,.F.,(9,7,7,9),(0.,
    0.230771661052,0.445670538511,1.),.UNSPECIFIED.);
#593 = CARTESIAN_POINT('',(-3.083333333333,-7.381941178007,173.5));
#594 = CARTESIAN_POINT('',(-3.307124494807,-7.288466747469,
    173.39671177162));
#595 = CARTESIAN_POINT('',(-3.526677421975,-7.182370824642,
    173.29537965139));
#596 = CARTESIAN_POINT('',(-3.74137196185,-7.064137515058,
    173.19628986376));
#597 = CARTESIAN_POINT('',(-3.950650262681,-6.93428280122,
    173.09969987876));
#598 = CARTESIAN_POINT('',(-4.15401357254,-6.793348162307,
    173.00583988959));
#599 = CARTESIAN_POINT('',(-4.351019739925,-6.641895529382,
    172.91491396618));
#600 = CARTESIAN_POINT('',(-4.541281416366,-6.480503576109,
    172.82710088475));
#601 = CARTESIAN_POINT('',(-4.895048896454,-6.150770717804,
    172.66382358625));
#602 = CARTESIAN_POINT('',(-5.059500109005,-5.983666241094,
    172.58792302661));
#603 = CARTESIAN_POINT('',(-5.217551221823,-5.808927975166,
    172.51497635915));
#604 = CARTESIAN_POINT('',(-5.368980707772,-5.627035173233,
    172.44508582718));
#605 = CARTESIAN_POINT('',(-5.513610148743,-5.438467403488,
    172.3783337775));
#606 = CARTESIAN_POINT('',(-5.65130149494,-5.2437016712,172.31478392541)
  );
#607 = CARTESIAN_POINT('',(-5.781954324158,-5.043209540809,
    172.25448261961));
#608 = CARTESIAN_POINT('',(-6.224195910383,-4.306710605682,
    172.05037111828));
#609 = CARTESIAN_POINT('',(-6.495237474445,-3.74158531166,
    171.92527501179));
#610 = CARTESIAN_POINT('',(-6.718140964242,-3.149450865901,
    171.82239647804));
#611 = CARTESIAN_POINT('',(-6.893518682623,-2.537151588826,
    171.74145291571));
#612 = CARTESIAN_POINT('',(-7.022849814542,-1.910941595722,
    171.68176162405));
#613 = CARTESIAN_POINT('',(-7.108225800592,-1.276438672956,
    171.6423573228));
#614 = CARTESIAN_POINT('',(-7.15092571937,-0.638284809141,
    171.62264966798));
#615 = CARTESIAN_POINT('',(-7.15092571937,1.874E-14,171.62264966798));
#616 = ORIENTED_EDGE('',*,*,#617,.F.);
#617 = EDGE_CURVE('',#618,#590,#620,.T.);
#618 = VERTEX_POINT('',#619);
#619 = CARTESIAN_POINT('',(-3.083333333333,7.381941178007,173.5));
#620 = B_SPLINE_CURVE_WITH_KNOTS('',8,(#621,#622,#623,#624,#625,#626,
    #627,#628,#629,#630,#631,#632,#633,#634,#635,#636,#637,#638,#639,
    #640,#641,#642,#643),.UNSPECIFIED.,.F.,.F.,(9,7,7,9),(0.,
    0.230771661052,0.445670538511,1.),.UNSPECIFIED.);
#621 = CARTESIAN_POINT('',(-3.083333333333,7.381941178007,173.5));
#622 = CARTESIAN_POINT('',(-3.307124494807,7.288466747469,
    173.39671177162));
#623 = CARTESIAN_POINT('',(-3.526677421975,7.182370824642,
    173.29537965139));
#624 = CARTESIAN_POINT('',(-3.74137196185,7.064137515058,173.19628986376
    ));
#625 = CARTESIAN_POINT('',(-3.95065026268,6.93428280122,173.09969987876)
  );
#626 = CARTESIAN_POINT('',(-4.15401357254,6.793348162307,173.00583988959
    ));
#627 = CARTESIAN_POINT('',(-4.351019739925,6.641895529382,
    172.91491396618));
#628 = CARTESIAN_POINT('',(-4.541281416366,6.480503576109,
    172.82710088475));
#629 = CARTESIAN_POINT('',(-4.895048896454,6.150770717804,
    172.66382358625));
#630 = CARTESIAN_POINT('',(-5.059500109005,5.983666241094,
    172.58792302661));
#631 = CARTESIAN_POINT('',(-5.217551221823,5.808927975166,
    172.51497635915));
#632 = CARTESIAN_POINT('',(-5.368980707772,5.627035173234,
    172.44508582718));
#633 = CARTESIAN_POINT('',(-5.513610148743,5.438467403488,172.3783337775
    ));
#634 = CARTESIAN_POINT('',(-5.65130149494,5.2437016712,172.31478392541)
  );
#635 = CARTESIAN_POINT('',(-5.781954324158,5.043209540809,
    172.25448261961));
#636 = CARTESIAN_POINT('',(-6.224195910383,4.306710605682,
    172.05037111828));
#637 = CARTESIAN_POINT('',(-6.495237474445,3.741585311662,
    171.92527501179));
#638 = CARTESIAN_POINT('',(-6.718140964242,3.149450865899,
    171.82239647804));
#639 = CARTESIAN_POINT('',(-6.893518682623,2.537151588829,
    171.74145291571));
#640 = CARTESIAN_POINT('',(-7.022849814542,1.91094159572,171.68176162405
    ));
#641 = CARTESIAN_POINT('',(-7.108225800593,1.276438672956,171.6423573228
    ));
#642 = CARTESIAN_POINT('',(-7.15092571937,0.638284809141,171.62264966798
    ));
#643 = CARTESIAN_POINT('',(-7.15092571937,1.874E-14,171.62264966798));
#644 = ORIENTED_EDGE('',*,*,#645,.F.);
#645 = EDGE_CURVE('',#646,#618,#648,.T.);
#646 = VERTEX_POINT('',#647);
#647 = CARTESIAN_POINT('',(-2.,7.745966692415,174.));
#648 = ELLIPSE('',#649,8.81096680817,8.);
#649 = AXIS2_PLACEMENT_3D('',#650,#651,#652);
#650 = CARTESIAN_POINT('',(0.,0.,174.92307692307));
#651 = DIRECTION('',(-0.419058177462,2.E-16,0.9079593845));
#652 = DIRECTION('',(0.9079593845,-4.4E-16,0.419058177462));
#653 = ORIENTED_EDGE('',*,*,#654,.T.);
#654 = EDGE_CURVE('',#646,#49,#655,.T.);
#655 = LINE('',#656,#657);
#656 = CARTESIAN_POINT('',(-2.,-189.6940684225,174.));
#657 = VECTOR('',#658,1.);
#658 = DIRECTION('',(0.,1.,-2.2E-16));
#659 = ORIENTED_EDGE('',*,*,#57,.T.);
#660 = PLANE('',#661);
#661 = AXIS2_PLACEMENT_3D('',#662,#663,#664);
#662 = CARTESIAN_POINT('',(-2.,-189.6940684225,174.));
#663 = DIRECTION('',(-0.419058177462,2.E-16,0.9079593845));
#664 = DIRECTION('',(-0.9079593845,-9.E-17,-0.419058177462));
#665 = ADVANCED_FACE('',(#666),#678,.T.);
#666 = FACE_BOUND('',#667,.T.);
#667 = EDGE_LOOP('',(#668,#669,#670,#671));
#668 = ORIENTED_EDGE('',*,*,#572,.F.);
#669 = ORIENTED_EDGE('',*,*,#48,.T.);
#670 = ORIENTED_EDGE('',*,*,#654,.F.);
#671 = ORIENTED_EDGE('',*,*,#672,.F.);
#672 = EDGE_CURVE('',#573,#646,#673,.T.);
#673 = CIRCLE('',#674,8.);
#674 = AXIS2_PLACEMENT_3D('',#675,#676,#677);
#675 = CARTESIAN_POINT('',(0.,-2.84217094304E-14,174.));
#676 = DIRECTION('',(0.,-2.2E-16,1.));
#677 = DIRECTION('',(-1.,0.,0.));
#678 = PLANE('',#679);
#679 = AXIS2_PLACEMENT_3D('',#680,#681,#682);
#680 = CARTESIAN_POINT('',(6.4E-16,-3.907985046681E-14,174.));
#681 = DIRECTION('',(0.,-2.2E-16,1.));
#682 = DIRECTION('',(1.,0.,0.));
#683 = ADVANCED_FACE('',(#684),#714,.F.);
#684 = FACE_BOUND('',#685,.T.);
#685 = EDGE_LOOP('',(#686,#687,#695,#704,#711,#712,#713));
#686 = ORIENTED_EDGE('',*,*,#66,.F.);
#687 = ORIENTED_EDGE('',*,*,#688,.T.);
#688 = EDGE_CURVE('',#67,#689,#691,.T.);
#689 = VERTEX_POINT('',#690);
#690 = CARTESIAN_POINT('',(7.5,-3.,169.));
#691 = LINE('',#692,#693);
#692 = CARTESIAN_POINT('',(8.5,-3.,169.));
#693 = VECTOR('',#694,1.);
#694 = DIRECTION('',(-1.,0.,0.));
#695 = ORIENTED_EDGE('',*,*,#696,.T.);
#696 = EDGE_CURVE('',#689,#697,#699,.T.);
#697 = VERTEX_POINT('',#698);
#698 = CARTESIAN_POINT('',(7.5,-1.06545E-10,172.));
#699 = CIRCLE('',#700,3.);
#700 = AXIS2_PLACEMENT_3D('',#701,#702,#703);
#701 = CARTESIAN_POINT('',(7.5,-2.84217094304E-14,169.));
#702 = DIRECTION('',(-1.,0.,0.));
#703 = DIRECTION('',(-0.,-1.,-2.2E-16));
#704 = ORIENTED_EDGE('',*,*,#705,.T.);
#705 = EDGE_CURVE('',#697,#689,#706,.T.);
#706 = CIRCLE('',#707,3.);
#707 = AXIS2_PLACEMENT_3D('',#708,#709,#710);
#708 = CARTESIAN_POINT('',(7.5,-2.84217094304E-14,169.));
#709 = DIRECTION('',(-1.,0.,0.));
#710 = DIRECTION('',(-0.,-1.,-2.2E-16));
#711 = ORIENTED_EDGE('',*,*,#688,.F.);
#712 = ORIENTED_EDGE('',*,*,#225,.F.);
#713 = ORIENTED_EDGE('',*,*,#382,.F.);
#714 = CYLINDRICAL_SURFACE('',#715,3.);
#715 = AXIS2_PLACEMENT_3D('',#716,#717,#718);
#716 = CARTESIAN_POINT('',(8.5,0.,169.));
#717 = DIRECTION('',(1.,0.,0.));
#718 = DIRECTION('',(0.,-1.,0.));
#719 = ADVANCED_FACE('',(#720,#731),#734,.T.);
#720 = FACE_BOUND('',#721,.T.);
#721 = EDGE_LOOP('',(#722));
#722 = ORIENTED_EDGE('',*,*,#723,.T.);
#723 = EDGE_CURVE('',#724,#724,#726,.T.);
#724 = VERTEX_POINT('',#725);
#725 = CARTESIAN_POINT('',(-10.8,-1.E-15,164.));
#726 = CIRCLE('',#727,10.8);
#727 = AXIS2_PLACEMENT_3D('',#728,#729,#730);
#728 = CARTESIAN_POINT('',(0.,3.508E-14,164.));
#729 = DIRECTION('',(0.,0.,1.));
#730 = DIRECTION('',(-1.,-0.,0.));
#731 = FACE_BOUND('',#732,.T.);
#732 = EDGE_LOOP('',(#733));
#733 = ORIENTED_EDGE('',*,*,#556,.F.);
#734 = PLANE('',#735);
#735 = AXIS2_PLACEMENT_3D('',#736,#737,#738);
#736 = CARTESIAN_POINT('',(4.8E-16,-1.7763568394E-15,164.));
#737 = DIRECTION('',(0.,-2.2E-16,1.));
#738 = DIRECTION('',(1.,0.,0.));
#739 = ADVANCED_FACE('',(#740),#752,.F.);
#740 = FACE_BOUND('',#741,.F.);
#741 = EDGE_LOOP('',(#742,#743,#744,#751));
#742 = ORIENTED_EDGE('',*,*,#672,.F.);
#743 = ORIENTED_EDGE('',*,*,#580,.F.);
#744 = ORIENTED_EDGE('',*,*,#745,.T.);
#745 = EDGE_CURVE('',#581,#618,#746,.T.);
#746 = CIRCLE('',#747,8.);
#747 = AXIS2_PLACEMENT_3D('',#748,#749,#750);
#748 = CARTESIAN_POINT('',(0.,0.,173.5));
#749 = DIRECTION('',(0.,0.,1.));
#750 = DIRECTION('',(-1.,0.,0.));
#751 = ORIENTED_EDGE('',*,*,#645,.F.);
#752 = CYLINDRICAL_SURFACE('',#753,8.);
#753 = AXIS2_PLACEMENT_3D('',#754,#755,#756);
#754 = CARTESIAN_POINT('',(0.,0.,174.));
#755 = DIRECTION('',(0.,0.,1.));
#756 = DIRECTION('',(-1.,0.,0.));
#757 = ADVANCED_FACE('',(#758),#780,.F.);
#758 = FACE_BOUND('',#759,.T.);
#759 = EDGE_LOOP('',(#760,#761,#762,#763,#772,#779));
#760 = ORIENTED_EDGE('',*,*,#589,.F.);
#761 = ORIENTED_EDGE('',*,*,#745,.T.);
#762 = ORIENTED_EDGE('',*,*,#617,.T.);
#763 = ORIENTED_EDGE('',*,*,#764,.T.);
#764 = EDGE_CURVE('',#590,#765,#767,.T.);
#765 = VERTEX_POINT('',#766);
#766 = CARTESIAN_POINT('',(-5.5,-3.8E-14,171.));
#767 = CIRCLE('',#768,2.5);
#768 = AXIS2_PLACEMENT_3D('',#769,#770,#771);
#769 = CARTESIAN_POINT('',(-5.5,0.,173.5));
#770 = DIRECTION('',(0.,-1.,0.));
#771 = DIRECTION('',(-1.,0.,0.));
#772 = ORIENTED_EDGE('',*,*,#773,.F.);
#773 = EDGE_CURVE('',#765,#765,#774,.T.);
#774 = CIRCLE('',#775,5.5);
#775 = AXIS2_PLACEMENT_3D('',#776,#777,#778);
#776 = CARTESIAN_POINT('',(0.,0.,171.));
#777 = DIRECTION('',(0.,0.,1.));
#778 = DIRECTION('',(-1.,0.,0.));
#779 = ORIENTED_EDGE('',*,*,#764,.F.);
#780 = TOROIDAL_SURFACE('',#781,5.5,2.5);
#781 = AXIS2_PLACEMENT_3D('',#782,#783,#784);
#782 = CARTESIAN_POINT('',(0.,0.,173.5));
#783 = DIRECTION('',(0.,0.,-1.));
#784 = DIRECTION('',(-1.,0.,0.));
#785 = ADVANCED_FACE('',(#786,#790),#801,.T.);
#786 = FACE_BOUND('',#787,.T.);
#787 = EDGE_LOOP('',(#788,#789));
#788 = ORIENTED_EDGE('',*,*,#696,.F.);
#789 = ORIENTED_EDGE('',*,*,#705,.F.);
#790 = FACE_BOUND('',#791,.T.);
#791 = EDGE_LOOP('',(#792));
#792 = ORIENTED_EDGE('',*,*,#793,.F.);
#793 = EDGE_CURVE('',#794,#794,#796,.T.);
#794 = VERTEX_POINT('',#795);
#795 = CARTESIAN_POINT('',(7.5,-3.8E-14,169.1));
#796 = CIRCLE('',#797,0.1);
#797 = AXIS2_PLACEMENT_3D('',#798,#799,#800);
#798 = CARTESIAN_POINT('',(7.5,-3.753E-14,169.));
#799 = DIRECTION('',(1.,2.2E-16,-2.2E-16));
#800 = DIRECTION('',(2.2E-16,-2.2E-16,1.));
#801 = PLANE('',#802);
#802 = AXIS2_PLACEMENT_3D('',#803,#804,#805);
#803 = CARTESIAN_POINT('',(7.5,-3.73E-14,169.));
#804 = DIRECTION('',(1.,0.,0.));
#805 = DIRECTION('',(0.,-2.2E-16,1.));
#806 = ADVANCED_FACE('',(#807),#827,.T.);
#807 = FACE_BOUND('',#808,.F.);
#808 = EDGE_LOOP('',(#809,#818,#819,#820));
#809 = ORIENTED_EDGE('',*,*,#810,.F.);
#810 = EDGE_CURVE('',#724,#811,#813,.T.);
#811 = VERTEX_POINT('',#812);
#812 = CARTESIAN_POINT('',(-11.3,-1.E-15,163.5));
#813 = CIRCLE('',#814,0.5);
#814 = AXIS2_PLACEMENT_3D('',#815,#816,#817);
#815 = CARTESIAN_POINT('',(-10.8,3.508E-14,163.5));
#816 = DIRECTION('',(0.,-1.,0.));
#817 = DIRECTION('',(-1.,0.,0.));
#818 = ORIENTED_EDGE('',*,*,#723,.F.);
#819 = ORIENTED_EDGE('',*,*,#810,.T.);
#820 = ORIENTED_EDGE('',*,*,#821,.T.);
#821 = EDGE_CURVE('',#811,#811,#822,.T.);
#822 = CIRCLE('',#823,11.3);
#823 = AXIS2_PLACEMENT_3D('',#824,#825,#826);
#824 = CARTESIAN_POINT('',(0.,3.508E-14,163.5));
#825 = DIRECTION('',(0.,0.,1.));
#826 = DIRECTION('',(-1.,-0.,0.));
#827 = TOROIDAL_SURFACE('',#828,10.8,0.5);
#828 = AXIS2_PLACEMENT_3D('',#829,#830,#831);
#829 = CARTESIAN_POINT('',(0.,3.508E-14,163.5));
#830 = DIRECTION('',(0.,-0.,-1.));
#831 = DIRECTION('',(-1.,-0.,0.));
#832 = ADVANCED_FACE('',(#833),#836,.T.);
#833 = FACE_BOUND('',#834,.T.);
#834 = EDGE_LOOP('',(#835));
#835 = ORIENTED_EDGE('',*,*,#773,.T.);
#836 = PLANE('',#837);
#837 = AXIS2_PLACEMENT_3D('',#838,#839,#840);
#838 = CARTESIAN_POINT('',(5.1E-16,-3.907985046681E-14,171.));
#839 = DIRECTION('',(0.,-2.2E-16,1.));
#840 = DIRECTION('',(1.,0.,0.));
#841 = ADVANCED_FACE('',(#842),#861,.F.);
#842 = FACE_BOUND('',#843,.F.);
#843 = EDGE_LOOP('',(#844,#852,#859,#860));
#844 = ORIENTED_EDGE('',*,*,#845,.T.);
#845 = EDGE_CURVE('',#794,#846,#848,.T.);
#846 = VERTEX_POINT('',#847);
#847 = CARTESIAN_POINT('',(2.5,-3.8E-14,169.1));
#848 = LINE('',#849,#850);
#849 = CARTESIAN_POINT('',(7.5,0.,169.1));
#850 = VECTOR('',#851,1.);
#851 = DIRECTION('',(-1.,0.,2.2E-16));
#852 = ORIENTED_EDGE('',*,*,#853,.T.);
#853 = EDGE_CURVE('',#846,#846,#854,.T.);
#854 = CIRCLE('',#855,0.1);
#855 = AXIS2_PLACEMENT_3D('',#856,#857,#858);
#856 = CARTESIAN_POINT('',(2.5,-3.764E-14,169.));
#857 = DIRECTION('',(1.,2.2E-16,-2.2E-16));
#858 = DIRECTION('',(2.2E-16,-2.2E-16,1.));
#859 = ORIENTED_EDGE('',*,*,#845,.F.);
#860 = ORIENTED_EDGE('',*,*,#793,.F.);
#861 = CYLINDRICAL_SURFACE('',#862,0.1);
#862 = AXIS2_PLACEMENT_3D('',#863,#864,#865);
#863 = CARTESIAN_POINT('',(7.5,0.,169.));
#864 = DIRECTION('',(1.,0.,-2.2E-16));
#865 = DIRECTION('',(2.2E-16,0.,1.));
#866 = ADVANCED_FACE('',(#867),#886,.T.);
#867 = FACE_BOUND('',#868,.F.);
#868 = EDGE_LOOP('',(#869,#877,#878,#879));
#869 = ORIENTED_EDGE('',*,*,#870,.T.);
#870 = EDGE_CURVE('',#871,#811,#873,.T.);
#871 = VERTEX_POINT('',#872);
#872 = CARTESIAN_POINT('',(-11.3,0.,158.));
#873 = LINE('',#874,#875);
#874 = CARTESIAN_POINT('',(-11.3,3.508E-14,158.));
#875 = VECTOR('',#876,1.);
#876 = DIRECTION('',(0.,0.,1.));
#877 = ORIENTED_EDGE('',*,*,#821,.T.);
#878 = ORIENTED_EDGE('',*,*,#870,.F.);
#879 = ORIENTED_EDGE('',*,*,#880,.F.);
#880 = EDGE_CURVE('',#871,#871,#881,.T.);
#881 = CIRCLE('',#882,11.3);
#882 = AXIS2_PLACEMENT_3D('',#883,#884,#885);
#883 = CARTESIAN_POINT('',(0.,0.,158.));
#884 = DIRECTION('',(0.,-2.2E-16,1.));
#885 = DIRECTION('',(-1.,0.,0.));
#886 = CYLINDRICAL_SURFACE('',#887,11.3);
#887 = AXIS2_PLACEMENT_3D('',#888,#889,#890);
#888 = CARTESIAN_POINT('',(0.,3.508E-14,158.));
#889 = DIRECTION('',(0.,0.,-1.));
#890 = DIRECTION('',(-1.,0.,0.));
#891 = ADVANCED_FACE('',(#892),#895,.T.);
#892 = FACE_BOUND('',#893,.T.);
#893 = EDGE_LOOP('',(#894));
#894 = ORIENTED_EDGE('',*,*,#853,.T.);
#895 = PLANE('',#896);
#896 = AXIS2_PLACEMENT_3D('',#897,#898,#899);
#897 = CARTESIAN_POINT('',(2.5,-3.765E-14,169.));
#898 = DIRECTION('',(1.,0.,0.));
#899 = DIRECTION('',(0.,-2.2E-16,1.));
#900 = ADVANCED_FACE('',(#901,#912),#915,.F.);
#901 = FACE_BOUND('',#902,.F.);
#902 = EDGE_LOOP('',(#903));
#903 = ORIENTED_EDGE('',*,*,#904,.T.);
#904 = EDGE_CURVE('',#905,#905,#907,.T.);
#905 = VERTEX_POINT('',#906);
#906 = CARTESIAN_POINT('',(15.5,0.,158.));
#907 = CIRCLE('',#908,15.5);
#908 = AXIS2_PLACEMENT_3D('',#909,#910,#911);
#909 = CARTESIAN_POINT('',(0.,3.508E-14,158.));
#910 = DIRECTION('',(0.,-2.2E-16,-1.));
#911 = DIRECTION('',(1.,0.,0.));
#912 = FACE_BOUND('',#913,.F.);
#913 = EDGE_LOOP('',(#914));
#914 = ORIENTED_EDGE('',*,*,#880,.T.);
#915 = PLANE('',#916);
#916 = AXIS2_PLACEMENT_3D('',#917,#918,#919);
#917 = CARTESIAN_POINT('',(0.,3.508E-14,158.));
#918 = DIRECTION('',(0.,-2.2E-16,-1.));
#919 = DIRECTION('',(1.,0.,0.));
#920 = ADVANCED_FACE('',(#921),#941,.T.);
#921 = FACE_BOUND('',#922,.F.);
#922 = EDGE_LOOP('',(#923,#932,#939,#940));
#923 = ORIENTED_EDGE('',*,*,#924,.F.);
#924 = EDGE_CURVE('',#925,#905,#927,.T.);
#925 = VERTEX_POINT('',#926);
#926 = CARTESIAN_POINT('',(16.5,0.,157.));
#927 = CIRCLE('',#928,1.);
#928 = AXIS2_PLACEMENT_3D('',#929,#930,#931);
#929 = CARTESIAN_POINT('',(15.5,3.486E-14,157.));
#930 = DIRECTION('',(0.,-1.,2.2E-16));
#931 = DIRECTION('',(1.,0.,0.));
#932 = ORIENTED_EDGE('',*,*,#933,.F.);
#933 = EDGE_CURVE('',#925,#925,#934,.T.);
#934 = CIRCLE('',#935,16.5);
#935 = AXIS2_PLACEMENT_3D('',#936,#937,#938);
#936 = CARTESIAN_POINT('',(0.,3.486E-14,157.));
#937 = DIRECTION('',(0.,-2.2E-16,-1.));
#938 = DIRECTION('',(1.,0.,0.));
#939 = ORIENTED_EDGE('',*,*,#924,.T.);
#940 = ORIENTED_EDGE('',*,*,#904,.T.);
#941 = TOROIDAL_SURFACE('',#942,15.5,1.);
#942 = AXIS2_PLACEMENT_3D('',#943,#944,#945);
#943 = CARTESIAN_POINT('',(0.,3.486E-14,157.));
#944 = DIRECTION('',(0.,2.2E-16,1.));
#945 = DIRECTION('',(1.,0.,0.));
#946 = ADVANCED_FACE('',(#947),#966,.T.);
#947 = FACE_BOUND('',#948,.F.);
#948 = EDGE_LOOP('',(#949,#957,#964,#965));
#949 = ORIENTED_EDGE('',*,*,#950,.F.);
#950 = EDGE_CURVE('',#951,#925,#953,.T.);
#951 = VERTEX_POINT('',#952);
#952 = CARTESIAN_POINT('',(16.5,0.,154.));
#953 = LINE('',#954,#955);
#954 = CARTESIAN_POINT('',(16.5,-3.397E-14,153.));
#955 = VECTOR('',#956,1.);
#956 = DIRECTION('',(0.,-2.2E-16,1.));
#957 = ORIENTED_EDGE('',*,*,#958,.T.);
#958 = EDGE_CURVE('',#951,#951,#959,.T.);
#959 = CIRCLE('',#960,16.5);
#960 = AXIS2_PLACEMENT_3D('',#961,#962,#963);
#961 = CARTESIAN_POINT('',(0.,3.419E-14,154.));
#962 = DIRECTION('',(0.,-2.2E-16,-1.));
#963 = DIRECTION('',(1.,0.,0.));
#964 = ORIENTED_EDGE('',*,*,#950,.T.);
#965 = ORIENTED_EDGE('',*,*,#933,.F.);
#966 = CYLINDRICAL_SURFACE('',#967,16.5);
#967 = AXIS2_PLACEMENT_3D('',#968,#969,#970);
#968 = CARTESIAN_POINT('',(0.,3.397E-14,153.));
#969 = DIRECTION('',(0.,2.2E-16,1.));
#970 = DIRECTION('',(1.,0.,0.));
#971 = ADVANCED_FACE('',(#972),#992,.T.);
#972 = FACE_BOUND('',#973,.F.);
#973 = EDGE_LOOP('',(#974,#983,#990,#991));
#974 = ORIENTED_EDGE('',*,*,#975,.F.);
#975 = EDGE_CURVE('',#976,#951,#978,.T.);
#976 = VERTEX_POINT('',#977);
#977 = CARTESIAN_POINT('',(15.5,0.,153.));
#978 = CIRCLE('',#979,1.);
#979 = AXIS2_PLACEMENT_3D('',#980,#981,#982);
#980 = CARTESIAN_POINT('',(15.5,3.419E-14,154.));
#981 = DIRECTION('',(0.,-1.,2.2E-16));
#982 = DIRECTION('',(1.,0.,0.));
#983 = ORIENTED_EDGE('',*,*,#984,.F.);
#984 = EDGE_CURVE('',#976,#976,#985,.T.);
#985 = CIRCLE('',#986,15.5);
#986 = AXIS2_PLACEMENT_3D('',#987,#988,#989);
#987 = CARTESIAN_POINT('',(0.,3.397E-14,153.));
#988 = DIRECTION('',(0.,-2.2E-16,-1.));
#989 = DIRECTION('',(1.,0.,0.));
#990 = ORIENTED_EDGE('',*,*,#975,.T.);
#991 = ORIENTED_EDGE('',*,*,#958,.T.);
#992 = TOROIDAL_SURFACE('',#993,15.5,1.);
#993 = AXIS2_PLACEMENT_3D('',#994,#995,#996);
#994 = CARTESIAN_POINT('',(0.,3.419E-14,154.));
#995 = DIRECTION('',(0.,2.2E-16,1.));
#996 = DIRECTION('',(1.,0.,0.));
#997 = ADVANCED_FACE('',(#998,#1001),#1012,.T.);
#998 = FACE_BOUND('',#999,.F.);
#999 = EDGE_LOOP('',(#1000));
#1000 = ORIENTED_EDGE('',*,*,#984,.F.);
#1001 = FACE_BOUND('',#1002,.F.);
#1002 = EDGE_LOOP('',(#1003));
#1003 = ORIENTED_EDGE('',*,*,#1004,.T.);
#1004 = EDGE_CURVE('',#1005,#1005,#1007,.T.);
#1005 = VERTEX_POINT('',#1006);
#1006 = CARTESIAN_POINT('',(15.,0.,153.));
#1007 = CIRCLE('',#1008,15.);
#1008 = AXIS2_PLACEMENT_3D('',#1009,#1010,#1011);
#1009 = CARTESIAN_POINT('',(0.,3.397E-14,153.));
#1010 = DIRECTION('',(0.,-2.2E-16,-1.));
#1011 = DIRECTION('',(1.,0.,0.));
#1012 = PLANE('',#1013);
#1013 = AXIS2_PLACEMENT_3D('',#1014,#1015,#1016);
#1014 = CARTESIAN_POINT('',(0.,3.397E-14,153.));
#1015 = DIRECTION('',(0.,-2.2E-16,-1.));
#1016 = DIRECTION('',(1.,0.,0.));
#1017 = ADVANCED_FACE('',(#1018),#1053,.T.);
#1018 = FACE_BOUND('',#1019,.F.);
#1019 = EDGE_LOOP('',(#1020,#1028,#1051,#1052));
#1020 = ORIENTED_EDGE('',*,*,#1021,.F.);
#1021 = EDGE_CURVE('',#1022,#1005,#1024,.T.);
#1022 = VERTEX_POINT('',#1023);
#1023 = CARTESIAN_POINT('',(23.741572761215,0.,137.26516902981));
#1024 = LINE('',#1025,#1026);
#1025 = CARTESIAN_POINT('',(25.,-2.998E-14,135.));
#1026 = VECTOR('',#1027,1.);
#1027 = DIRECTION('',(-0.485642931179,-1.9E-16,0.874157276122));
#1028 = ORIENTED_EDGE('',*,*,#1029,.T.);
#1029 = EDGE_CURVE('',#1022,#1022,#1030,.T.);
#1030 = ( BOUNDED_CURVE() B_SPLINE_CURVE(10,(#1031,#1032,#1033,#1034,
    #1035,#1036,#1037,#1038,#1039,#1040,#1041,#1042,#1043,#1044,#1045,
    #1046,#1047,#1048,#1049,#1050),.UNSPECIFIED.,.T.,.F.) 
B_SPLINE_CURVE_WITH_KNOTS((11,9,11),(3.11E-15,78.539816339745,
157.07963267949),.UNSPECIFIED.) CURVE() GEOMETRIC_REPRESENTATION_ITEM() 
RATIONAL_B_SPLINE_CURVE((1.,1.,1.,1.,0.999999999999,1.000000000001,1.,1.
,1.,1.,1.,1.,1.,1.,1.,1.,1.,1.,1.,1.)) REPRESENTATION_ITEM('') );
#1031 = CARTESIAN_POINT('',(23.741572761215,3.048E-14,137.26516902981));
#1032 = CARTESIAN_POINT('',(23.741572761215,-7.350740653504,
    137.26516902981));
#1033 = CARTESIAN_POINT('',(21.212435722961,-14.8129338807,
    137.26516902981));
#1034 = CARTESIAN_POINT('',(16.028019576397,-21.33975401179,
    137.26516902981));
#1035 = CARTESIAN_POINT('',(8.595382282716,-25.7860977286,
    137.26516902981));
#1036 = CARTESIAN_POINT('',(-6.142863266623E-03,-27.30105576946,
    137.26516902981));
#1037 = CARTESIAN_POINT('',(-8.57548213667,-25.74969987792,
    137.26516902981));
#1038 = CARTESIAN_POINT('',(-15.9322257852,-21.35206525311,
    137.26516902981));
#1039 = CARTESIAN_POINT('',(-21.13778272791,-14.91749454883,
    137.26516902981));
#1040 = CARTESIAN_POINT('',(-23.74157276121,-7.458635057131,
    137.26516902981));
#1041 = CARTESIAN_POINT('',(-23.74157276121,7.458635057131,
    137.26516902981));
#1042 = CARTESIAN_POINT('',(-21.13778272791,14.917494548831,
    137.26516902981));
#1043 = CARTESIAN_POINT('',(-15.9322257852,21.352065253113,
    137.26516902981));
#1044 = CARTESIAN_POINT('',(-8.575482136665,25.749699877923,
    137.26516902981));
#1045 = CARTESIAN_POINT('',(-6.142863269085E-03,27.30105576947,
    137.26516902981));
#1046 = CARTESIAN_POINT('',(8.595382282716,25.786097728603,
    137.26516902981));
#1047 = CARTESIAN_POINT('',(16.0280195764,21.339754011792,
    137.26516902981));
#1048 = CARTESIAN_POINT('',(21.212435722959,14.8129338807,
    137.26516902981));
#1049 = CARTESIAN_POINT('',(23.741572761215,7.350740653504,
    137.26516902981));
#1050 = CARTESIAN_POINT('',(23.741572761215,3.629E-14,137.26516902981));
#1051 = ORIENTED_EDGE('',*,*,#1021,.T.);
#1052 = ORIENTED_EDGE('',*,*,#1004,.F.);
#1053 = CONICAL_SURFACE('',#1054,25.,0.507098504392);
#1054 = AXIS2_PLACEMENT_3D('',#1055,#1056,#1057);
#1055 = CARTESIAN_POINT('',(0.,2.998E-14,135.));
#1056 = DIRECTION('',(-0.,-2.2E-16,-1.));
#1057 = DIRECTION('',(1.,0.,0.));
#1058 = ADVANCED_FACE('',(#1059),#1094,.T.);
#1059 = FACE_BOUND('',#1060,.T.);
#1060 = EDGE_LOOP('',(#1061,#1069,#1070,#1071));
#1061 = ORIENTED_EDGE('',*,*,#1062,.T.);
#1062 = EDGE_CURVE('',#1063,#1022,#1065,.T.);
#1063 = VERTEX_POINT('',#1064);
#1064 = CARTESIAN_POINT('',(25.,0.,132.40873971802));
#1065 = ( BOUNDED_CURVE() B_SPLINE_CURVE(2,(#1066,#1067,#1068),
.UNSPECIFIED.,.F.,.F.) B_SPLINE_CURVE_WITH_KNOTS((3,3),(0.,
157.07963267949),.PIECEWISE_BEZIER_KNOTS.) CURVE() 
GEOMETRIC_REPRESENTATION_ITEM() RATIONAL_B_SPLINE_CURVE((1.,
0.968028221727,1.)) REPRESENTATION_ITEM('') );
#1066 = CARTESIAN_POINT('',(25.,2.94E-14,132.40873971802));
#1067 = CARTESIAN_POINT('',(25.,3.108E-14,135.));
#1068 = CARTESIAN_POINT('',(23.741572761215,3.048E-14,137.26516902981));
#1069 = ORIENTED_EDGE('',*,*,#1029,.T.);
#1070 = ORIENTED_EDGE('',*,*,#1062,.F.);
#1071 = ORIENTED_EDGE('',*,*,#1072,.F.);
#1072 = EDGE_CURVE('',#1063,#1063,#1073,.T.);
#1073 = ( BOUNDED_CURVE() B_SPLINE_CURVE(10,(#1074,#1075,#1076,#1077,
    #1078,#1079,#1080,#1081,#1082,#1083,#1084,#1085,#1086,#1087,#1088,
    #1089,#1090,#1091,#1092,#1093),.UNSPECIFIED.,.T.,.F.) 
B_SPLINE_CURVE_WITH_KNOTS((11,9,11),(3.11E-15,78.539816339745,
157.07963267949),.UNSPECIFIED.) CURVE() GEOMETRIC_REPRESENTATION_ITEM() 
RATIONAL_B_SPLINE_CURVE((1.,1.,1.,1.,0.999999999999,1.000000000001,1.,1.
,1.,1.,1.,1.,1.,1.,1.,1.,1.,1.,1.,1.)) REPRESENTATION_ITEM('') );
#1074 = CARTESIAN_POINT('',(25.,2.94E-14,132.40873971802));
#1075 = CARTESIAN_POINT('',(24.999999999999,-7.740368263968,
    132.40873971802));
#1076 = CARTESIAN_POINT('',(22.336805501796,-15.59809666958,
    132.40873971802));
#1077 = CARTESIAN_POINT('',(16.87758824742,-22.47087232427,
    132.40873971802));
#1078 = CARTESIAN_POINT('',(9.050982394011,-27.1528954589,
    132.40873971802));
#1079 = CARTESIAN_POINT('',(-6.468467072077E-03,-28.7481541809,
    132.40873971802));
#1080 = CARTESIAN_POINT('',(-9.030027436387,-27.11456833221,
    132.40873971802));
#1081 = CARTESIAN_POINT('',(-16.77671688544,-22.48383612562,
    132.40873971802));
#1082 = CARTESIAN_POINT('',(-22.25819550848,-15.70819959872,
    132.40873971802));
#1083 = CARTESIAN_POINT('',(-24.99999999999,-7.853981633975,
    132.40873971802));
#1084 = CARTESIAN_POINT('',(-25.,7.853981633975,132.40873971802));
#1085 = CARTESIAN_POINT('',(-22.25819550847,15.708199598723,
    132.40873971802));
#1086 = CARTESIAN_POINT('',(-16.77671688544,22.483836125625,
    132.40873971802));
#1087 = CARTESIAN_POINT('',(-9.030027436379,27.114568332211,
    132.40873971802));
#1088 = CARTESIAN_POINT('',(-6.468467078149E-03,28.748154180908,
    132.40873971802));
#1089 = CARTESIAN_POINT('',(9.050982394013,27.1528954589,132.40873971802
    ));
#1090 = CARTESIAN_POINT('',(16.877588247421,22.470872324276,
    132.40873971802));
#1091 = CARTESIAN_POINT('',(22.336805501795,15.598096669589,
    132.40873971802));
#1092 = CARTESIAN_POINT('',(25.,7.740368263968,132.40873971802));
#1093 = CARTESIAN_POINT('',(25.,3.552E-14,132.40873971802));
#1094 = ( BOUNDED_SURFACE() B_SPLINE_SURFACE(2,10,(
    (#1095,#1096,#1097,#1098,#1099,#1100,#1101,#1102,#1103,#1104,#1105
      ,#1106,#1107,#1108,#1109,#1110,#1111,#1112,#1113,#1114)
    ,(#1115,#1116,#1117,#1118,#1119,#1120,#1121,#1122,#1123,#1124,#1125
      ,#1126,#1127,#1128,#1129,#1130,#1131,#1132,#1133,#1134)
    ,(#1135,#1136,#1137,#1138,#1139,#1140,#1141,#1142,#1143,#1144,#1145
      ,#1146,#1147,#1148,#1149,#1150,#1151,#1152,#1153,#1154
)),.UNSPECIFIED.,.F.,.T.,.F.) B_SPLINE_SURFACE_WITH_KNOTS((3,3),(11,9,11
    ),(0.,157.07963267949),(3.11E-15,78.539816339745,157.07963267949),
.UNSPECIFIED.) GEOMETRIC_REPRESENTATION_ITEM() RATIONAL_B_SPLINE_SURFACE
((
    (1.,1.,1.,1.,0.999999999999,1.000000000001,1.,1.,1.,1.,1.,1.,1.,1.
      ,1.,1.,1.,1.,1.,1.)
    ,(0.968028221727,0.968028221727,0.968028221727,0.968028221728
      ,0.968028221727,0.968028221728,0.968028221727,0.968028221728
      ,0.968028221727,0.968028221727,0.968028221727,0.968028221727
      ,0.968028221728,0.968028221727,0.968028221728,0.968028221727
      ,0.968028221728,0.968028221727,0.968028221727,0.968028221727)
    ,(1.,1.,1.,1.,0.999999999999,1.000000000001,1.,1.,1.,1.,1.,1.,1.,1.
,1.,1.,1.,1.,1.,1.))) REPRESENTATION_ITEM('') SURFACE() );
#1095 = CARTESIAN_POINT('',(25.,2.94E-14,132.40873971802));
#1096 = CARTESIAN_POINT('',(24.999999999999,-7.740368263968,
    132.40873971802));
#1097 = CARTESIAN_POINT('',(22.336805501796,-15.59809666958,
    132.40873971802));
#1098 = CARTESIAN_POINT('',(16.87758824742,-22.47087232427,
    132.40873971802));
#1099 = CARTESIAN_POINT('',(9.050982394011,-27.1528954589,
    132.40873971802));
#1100 = CARTESIAN_POINT('',(-6.468467072077E-03,-28.7481541809,
    132.40873971802));
#1101 = CARTESIAN_POINT('',(-9.030027436387,-27.11456833221,
    132.40873971802));
#1102 = CARTESIAN_POINT('',(-16.77671688544,-22.48383612562,
    132.40873971802));
#1103 = CARTESIAN_POINT('',(-22.25819550848,-15.70819959872,
    132.40873971802));
#1104 = CARTESIAN_POINT('',(-24.99999999999,-7.853981633975,
    132.40873971802));
#1105 = CARTESIAN_POINT('',(-25.,7.853981633975,132.40873971802));
#1106 = CARTESIAN_POINT('',(-22.25819550847,15.708199598723,
    132.40873971802));
#1107 = CARTESIAN_POINT('',(-16.77671688544,22.483836125625,
    132.40873971802));
#1108 = CARTESIAN_POINT('',(-9.030027436379,27.114568332211,
    132.40873971802));
#1109 = CARTESIAN_POINT('',(-6.468467078149E-03,28.748154180908,
    132.40873971802));
#1110 = CARTESIAN_POINT('',(9.050982394013,27.1528954589,132.40873971802
    ));
#1111 = CARTESIAN_POINT('',(16.877588247421,22.470872324276,
    132.40873971802));
#1112 = CARTESIAN_POINT('',(22.336805501795,15.598096669589,
    132.40873971802));
#1113 = CARTESIAN_POINT('',(25.,7.740368263968,132.40873971802));
#1114 = CARTESIAN_POINT('',(25.,3.552E-14,132.40873971802));
#1115 = CARTESIAN_POINT('',(25.,3.108E-14,135.));
#1116 = CARTESIAN_POINT('',(24.999999999999,-7.740368263968,135.));
#1117 = CARTESIAN_POINT('',(22.336805501797,-15.59809666958,135.));
#1118 = CARTESIAN_POINT('',(16.877588247418,-22.47087232427,135.));
#1119 = CARTESIAN_POINT('',(9.050982394013,-27.1528954589,135.));
#1120 = CARTESIAN_POINT('',(-6.468467075663E-03,-28.7481541809,
    134.99999999999));
#1121 = CARTESIAN_POINT('',(-9.030027436383,-27.11456833221,135.));
#1122 = CARTESIAN_POINT('',(-16.77671688544,-22.48383612562,135.));
#1123 = CARTESIAN_POINT('',(-22.25819550847,-15.70819959872,135.));
#1124 = CARTESIAN_POINT('',(-25.,-7.853981633975,135.));
#1125 = CARTESIAN_POINT('',(-25.,7.853981633975,135.));
#1126 = CARTESIAN_POINT('',(-22.25819550847,15.708199598722,135.));
#1127 = CARTESIAN_POINT('',(-16.77671688544,22.483836125628,135.));
#1128 = CARTESIAN_POINT('',(-9.030027436382,27.114568332207,
    134.99999999999));
#1129 = CARTESIAN_POINT('',(-6.468467075181E-03,28.748154180913,135.));
#1130 = CARTESIAN_POINT('',(9.050982394011,27.152895458895,
    134.99999999999));
#1131 = CARTESIAN_POINT('',(16.877588247421,22.470872324278,135.));
#1132 = CARTESIAN_POINT('',(22.336805501795,15.598096669588,135.));
#1133 = CARTESIAN_POINT('',(25.,7.740368263968,135.));
#1134 = CARTESIAN_POINT('',(25.,2.374E-14,135.));
#1135 = CARTESIAN_POINT('',(23.741572761215,3.048E-14,137.26516902981));
#1136 = CARTESIAN_POINT('',(23.741572761215,-7.350740653504,
    137.26516902981));
#1137 = CARTESIAN_POINT('',(21.212435722961,-14.8129338807,
    137.26516902981));
#1138 = CARTESIAN_POINT('',(16.028019576397,-21.33975401179,
    137.26516902981));
#1139 = CARTESIAN_POINT('',(8.595382282716,-25.7860977286,
    137.26516902981));
#1140 = CARTESIAN_POINT('',(-6.142863266623E-03,-27.30105576946,
    137.26516902981));
#1141 = CARTESIAN_POINT('',(-8.57548213667,-25.74969987792,
    137.26516902981));
#1142 = CARTESIAN_POINT('',(-15.9322257852,-21.35206525311,
    137.26516902981));
#1143 = CARTESIAN_POINT('',(-21.13778272791,-14.91749454883,
    137.26516902981));
#1144 = CARTESIAN_POINT('',(-23.74157276121,-7.458635057131,
    137.26516902981));
#1145 = CARTESIAN_POINT('',(-23.74157276121,7.458635057131,
    137.26516902981));
#1146 = CARTESIAN_POINT('',(-21.13778272791,14.917494548831,
    137.26516902981));
#1147 = CARTESIAN_POINT('',(-15.9322257852,21.352065253113,
    137.26516902981));
#1148 = CARTESIAN_POINT('',(-8.575482136665,25.749699877923,
    137.26516902981));
#1149 = CARTESIAN_POINT('',(-6.142863269085E-03,27.30105576947,
    137.26516902981));
#1150 = CARTESIAN_POINT('',(8.595382282716,25.786097728603,
    137.26516902981));
#1151 = CARTESIAN_POINT('',(16.0280195764,21.339754011792,
    137.26516902981));
#1152 = CARTESIAN_POINT('',(21.212435722959,14.8129338807,
    137.26516902981));
#1153 = CARTESIAN_POINT('',(23.741572761215,7.350740653504,
    137.26516902981));
#1154 = CARTESIAN_POINT('',(23.741572761215,3.629E-14,137.26516902981));
#1155 = ADVANCED_FACE('',(#1156),#1175,.T.);
#1156 = FACE_BOUND('',#1157,.F.);
#1157 = EDGE_LOOP('',(#1158,#1166,#1173,#1174));
#1158 = ORIENTED_EDGE('',*,*,#1159,.F.);
#1159 = EDGE_CURVE('',#1160,#1063,#1162,.T.);
#1160 = VERTEX_POINT('',#1161);
#1161 = CARTESIAN_POINT('',(25.,0.,2.));
#1162 = LINE('',#1163,#1164);
#1163 = CARTESIAN_POINT('',(25.,0.,0.));
#1164 = VECTOR('',#1165,1.);
#1165 = DIRECTION('',(0.,-2.2E-16,1.));
#1166 = ORIENTED_EDGE('',*,*,#1167,.T.);
#1167 = EDGE_CURVE('',#1160,#1160,#1168,.T.);
#1168 = CIRCLE('',#1169,25.);
#1169 = AXIS2_PLACEMENT_3D('',#1170,#1171,#1172);
#1170 = CARTESIAN_POINT('',(0.,4.4E-16,2.));
#1171 = DIRECTION('',(0.,-2.2E-16,-1.));
#1172 = DIRECTION('',(1.,0.,0.));
#1173 = ORIENTED_EDGE('',*,*,#1159,.T.);
#1174 = ORIENTED_EDGE('',*,*,#1072,.F.);
#1175 = CYLINDRICAL_SURFACE('',#1176,25.);
#1176 = AXIS2_PLACEMENT_3D('',#1177,#1178,#1179);
#1177 = CARTESIAN_POINT('',(0.,0.,0.));
#1178 = DIRECTION('',(0.,2.2E-16,1.));
#1179 = DIRECTION('',(1.,0.,0.));
#1180 = ADVANCED_FACE('',(#1181),#1201,.T.);
#1181 = FACE_BOUND('',#1182,.F.);
#1182 = EDGE_LOOP('',(#1183,#1192,#1199,#1200));
#1183 = ORIENTED_EDGE('',*,*,#1184,.F.);
#1184 = EDGE_CURVE('',#1185,#1160,#1187,.T.);
#1185 = VERTEX_POINT('',#1186);
#1186 = CARTESIAN_POINT('',(23.,0.,0.));
#1187 = CIRCLE('',#1188,2.);
#1188 = AXIS2_PLACEMENT_3D('',#1189,#1190,#1191);
#1189 = CARTESIAN_POINT('',(23.,4.4E-16,2.));
#1190 = DIRECTION('',(0.,-1.,2.2E-16));
#1191 = DIRECTION('',(1.,0.,0.));
#1192 = ORIENTED_EDGE('',*,*,#1193,.F.);
#1193 = EDGE_CURVE('',#1185,#1185,#1194,.T.);
#1194 = CIRCLE('',#1195,23.);
#1195 = AXIS2_PLACEMENT_3D('',#1196,#1197,#1198);
#1196 = CARTESIAN_POINT('',(0.,0.,0.));
#1197 = DIRECTION('',(0.,-2.2E-16,-1.));
#1198 = DIRECTION('',(1.,0.,0.));
#1199 = ORIENTED_EDGE('',*,*,#1184,.T.);
#1200 = ORIENTED_EDGE('',*,*,#1167,.T.);
#1201 = TOROIDAL_SURFACE('',#1202,23.,2.);
#1202 = AXIS2_PLACEMENT_3D('',#1203,#1204,#1205);
#1203 = CARTESIAN_POINT('',(0.,4.4E-16,2.));
#1204 = DIRECTION('',(0.,2.2E-16,1.));
#1205 = DIRECTION('',(1.,0.,0.));
#1206 = ADVANCED_FACE('',(#1207),#1210,.T.);
#1207 = FACE_BOUND('',#1208,.F.);
#1208 = EDGE_LOOP('',(#1209));
#1209 = ORIENTED_EDGE('',*,*,#1193,.F.);
#1210 = PLANE('',#1211);
#1211 = AXIS2_PLACEMENT_3D('',#1212,#1213,#1214);
#1212 = CARTESIAN_POINT('',(0.,0.,0.));
#1213 = DIRECTION('',(0.,-2.2E-16,-1.));
#1214 = DIRECTION('',(1.,0.,0.));
#1215 = ( GEOMETRIC_REPRESENTATION_CONTEXT(3) 
GLOBAL_UNCERTAINTY_ASSIGNED_CONTEXT((#1219)) 
GLOBAL_UNIT_ASSIGNED_CONTEXT((#1216,#1217,#1218)) REPRESENTATION_CONTEXT
('Context #1','3D Context with UNIT and UNCERTAINTY') );
#1216 = ( LENGTH_UNIT() NAMED_UNIT(*) SI_UNIT(.MILLI.,.METRE.) );
#1217 = ( NAMED_UNIT(*) PLANE_ANGLE_UNIT() SI_UNIT($,.RADIAN.) );
#1218 = ( NAMED_UNIT(*) SI_UNIT($,.STERADIAN.) SOLID_ANGLE_UNIT() );
#1219 = UNCERTAINTY_MEASURE_WITH_UNIT(LENGTH_MEASURE(1.E-06),#1216,
  'distance_accuracy_value','confusion accuracy');
#1220 = PRODUCT_RELATED_PRODUCT_CATEGORY('part',$,(#7));
#1221 = MECHANICAL_DESIGN_GEOMETRIC_PRESENTATION_REPRESENTATION('',(
    #1222),#1215);
#1222 = STYLED_ITEM('color',(#1223),#15);
#1223 = PRESENTATION_STYLE_ASSIGNMENT((#1224,#1230));
#1224 = SURFACE_STYLE_USAGE(.BOTH.,#1225);
#1225 = SURFACE_SIDE_STYLE('',(#1226));
#1226 = SURFACE_STYLE_FILL_AREA(#1227);
#1227 = FILL_AREA_STYLE('',(#1228));
#1228 = FILL_AREA_STYLE_COLOUR('',#1229);
#1229 = COLOUR_RGB('',0.447058818107,0.474509808674,0.501960817233);
#1230 = CURVE_STYLE('',#1231,POSITIVE_LENGTH_MEASURE(0.1),#1232);
#1231 = DRAUGHTING_PRE_DEFINED_CURVE_FONT('continuous');
#1232 = COLOUR_RGB('',9.803921802644E-02,9.803921802644E-02,
  9.803921802644E-02);
ENDSEC;
END-ISO-10303-21;
